<svg transform="scale(1)" version="1.1" id="_x30_754_x5F_Banker" xmlns="http://www.w3.org/2000/svg" xmlns:xlink="http://www.w3.org/1999/xlink" x="0px" y="0px" width="500px" height="500px" viewBox="0 0 500 500" xml:space="preserve" class="show_show__wrapper__graphic__5Waiy "><title>React</title><style type="text/css">
	.st0{fill:#000001;}
	.st1{fill:#C4C800;}
	.st2{fill:#fcfcfc;}
	.st3{fill:#C4C800;}
	.st4{fill:#FFFFFF;}
</style><g id="character"><path class="st0" d="M201.74,73.55c0.37-0.97,0.15-2.07-0.21-3.04c-1.35-3.61-4.65-6.29-8.34-7.42c-3.68-1.13-7.7-0.84-11.63,0.12
		c-2.35-2.85-6.29-4.3-9.93-3.66c-1.93,0.34-3.74,1.23-5.3,2.42c-3.65,2.81-5.85,7.51-5.34,12.08c0.51,4.57,3.85,8.79,8.5,10.29
		c-0.43,5.99,2.29,12.12,7.03,15.81c0.53-2.29,1.7-4.43,3.34-6.12c1.51-1.56,3.45-2.77,4.48-4.68c0.83-1.53,0.97-3.34,1.71-4.92
		c1.16-2.47,3.67-4.09,6.3-4.83c1.28-0.36,2.61-0.55,3.82-1.09C197.6,77.88,200.17,77.66,201.74,73.55z"></path><path class="st1" d="M193.98,118.85c1.49-0.01,2.99,0.2,4.42,0.61c0,0,23.35,2.37,23.41,2.53c0.93-0.21,1.96,0.38,2.25,1.29
		c0.09,0.3,0.11,0.62,0.22,0.91c0.1,0.3,0.32,0.58,0.63,0.64l28.93,31.3c0,0,18.74-43.83,19.26-43.92c0.6-1.06,1.86-1.61,3.08-1.63
		c1.21-0.02,2.39,0.39,3.51,0.87c1.87,0.8,3.7,1.82,5.07,3.32c1.37,1.51,2.23,3.57,1.92,5.59c0,0-18.08,51.66-18.05,51.9
		c-1.62,3.27-4.6,5.85-8.08,6.96c-3.48,1.11-7.4,0.75-10.62-0.99c0,0-26.68-25.37-26.54-24.73c0.78,3.33,1.13,6.89,0.04,10.14
		c-0.86,2.57-2.55,4.75-3.87,7.12c-3.65,6.51-4.42,14.2-4.94,21.65c-0.13,1.87-0.29,3.86-1.44,5.34c-0.48,0.61-1.26,1.13-2.26,1
		c-0.57,0.03-1.13,0.05-1.7,0.08c-0.09,0-0.18,0.01-0.27-0.03c-0.12-0.05-0.19-0.17-0.25-0.28c-0.38-0.68-0.78-1.37-1.36-1.9
		c-0.58-0.53-1.38-0.87-2.15-0.72c0,0-52.38,0.25-52.3-0.31c0.45-9.87,0.65-20.11-3.21-29.21c-0.52-1.21-1.11-2.41-1.96-3.42
		l-15.46,32.19l0.06,0.83h20.94c0,0,51.94-0.22,52.07-0.31c0.74,0.23,1.47,0.52,2.11,0.97c0.63,0.45,1.16,1.07,1.39,1.81
		c0.06,0.2,0.1,0.41,0.07,0.61c-0.05,0.39-0.32,0.72-0.77,1.14c-2.05,1.25-4.15,2.54-5.67,4.41c-1.66,2.03-2.5,4.62-2.89,7.22
		c-0.19,1.26-0.34,2.68-1.3,3.52c-0.97,0.85-2.41,0.8-3.65,1.15c-0.99,0.28-1.9,0.84-2.59,1.6c0,0-80.81,5.15-80.83,4.76
		c-2.32,0.91-5.08,0.09-6.93-1.57c-1.86-1.67-2.93-4.05-3.54-6.47c-1.31-5.13-0.72-10.72,1.63-15.47c0,0,37.88-73.68,38.11-73.96
		c0.81-1.41,2.53-1.97,4.1-2.41c1.09-0.31,2.19-0.61,3.28-0.92c0,0,23.67-2.53,23.94-2.64c0.83-0.79,1.67-1.59,2.68-2.12
		c1.01-0.54,2.22-0.79,3.31-0.42L193.98,118.85z"></path><path class="st2" d="M192.13,116.29c0.36-0.08,0.72-0.17,1.09-0.14c0.68,0.06,1.27,0.53,1.62,1.11c0.35,0.58,0.49,1.27,0.57,1.94
		c0.09,0.77,0.11,1.55,0.12,2.32c0,0,6.2,17.52,6.34,18.02c0.96,3.62,1.93,7.24,2.89,10.86c0.65,2.43,1.3,4.89,1.39,7.4
		c0.19,5.21-2,10.19-2.85,15.58c-0.19,7.6-0.2,15.2-0.05,22.8l-26.14-0.19c0,0-0.15-3.25,0.05-3.7c0.19-4.76,2.21-9.23,3.69-13.76
		c0.89-2.75,1.59-5.57,2.09-8.42c0.21-1.2,0.38-2.42,0.48-3.63c0.26-3.22,0.01-6.48-0.79-9.6l-3.17-12.06c0,0-7.01-20.9-6.97-20.61
		c-0.14-1.2-0.06-2.43,0.24-3.61c0.08-0.31,0.18-0.62,0.17-0.94c0-0.24-0.06-0.48-0.1-0.73c-0.15-1.13,0.37-2.29,1.21-3.06
		s1.97-1.17,3.11-1.28L192.13,116.29z"></path><path class="st3" d="M201.35,73.84c0.89,2.2,1.31,4.57,1.58,6.93c0.47,4.12,0.51,8.29,0.11,12.42l2.44,2.66l0.75,0.66l-3.25,0.06
		c0,0-1.42,7.54-1.5,7.69c-0.68,2.02-0.78,4.23-1.66,6.17c-0.34,0.75-0.81,1.46-1.5,1.91c-1.21,0.78-2.79,0.55-4.2,0.3l-1.09,4.56
		l-4.12,8.56l-12.68-9.69c0,0,0.51-11.66,0.59-11.97c-0.53-3.31-1.03-6.88,0.51-9.86c0.29-0.57,0.66-1.15,0.6-1.78
		c-0.03-0.32-0.17-0.61-0.3-0.9c-0.76-1.74-1.04-3.68-0.83-5.57c0.07-0.61,0.2-1.24,0.52-1.76s0.86-0.95,1.48-1
		c0.88-0.06,1.61,0.6,2.23,1.22c0.07-0.71,0.32-1.4,0.72-1.99c0.3-0.44,0.68-0.82,0.87-1.32c0.24-0.65,0.09-1.36,0.15-2.05
		c0.09-1.14,0.78-2.21,1.78-2.77c1.56-0.87,3.47-0.44,5.24-0.24C193.68,76.52,197.69,75.69,201.35,73.84z"></path><path class="st3" d="M285.88,117.44c-2.47-3.69-6.81-6.06-11.25-6.15c0,0-0.43-11.28-0.3-11.42c0.23-1.95,0.73-3.87,1.48-5.68
		c0.38-0.91,0.88-1.86,1.78-2.27c0.51-0.23,1.1-0.25,1.64-0.41c0.99-0.28,1.8-1,2.56-1.7c1.12-1.02,2.24-2.04,3.36-3.05
		c1.01-0.92,2.04-1.85,3.29-2.37s2.8-0.57,3.9,0.22c0,0,6.45,4.13,6.6,4.39c-0.1,0.55-0.15,1.23,0.31,1.54
		c0.19,0.13,0.44,0.17,0.64,0.29c0.31,0.19,0.46,0.55,0.6,0.88c0.45,1.14,0.9,2.27,1.34,3.41c-1.56-0.41-3.23,0.17-4.55,1.09
		c-2.03,1.43-3.42,3.67-4.07,6.06s-0.59,4.95-0.09,7.38c0.05,0.23,0.1,0.48,0.01,0.7c-0.08,0.22-0.28,0.38-0.47,0.52
		c-0.82,0.62-1.65,1.23-2.48,1.85c-0.63,0.47-1.27,0.95-1.72,1.58C287.71,115.41,287.4,117.03,285.88,117.44z"></path><path class="st3" d="M209.3,198.9c-3.72,0.48-7.03,2.92-9,6.11s-2.69,7.04-2.48,10.79l29.03,0.1c0,0,0.67-1.34,0.87-2.05
		c-0.05-0.93,0.41-1.79,0.75-2.66s0.56-1.89,0.09-2.69c-0.26-0.44-0.69-0.74-1.04-1.1s-0.65-0.86-0.53-1.36
		c0.05-0.21,0.18-0.4,0.29-0.59c0.51-0.82,0.87-1.73,1.08-2.67c0.1-0.46,0.16-0.95-0.04-1.38c-0.3-0.64-1.1-0.89-1.81-0.89
		c-0.71,0-1.41,0.19-2.12,0.13c-0.25-0.02-0.5-0.08-0.69-0.25c-0.19-0.18-0.27-0.44-0.4-0.67c-0.28-0.5-0.82-0.83-1.39-0.86
		L209.3,198.9z"></path><ellipse class="st0" cx="193.76" cy="87.16" rx="1.24" ry="2.5"></ellipse><ellipse class="st0" cx="200.76" cy="85.71" rx="1.24" ry="2.5"></ellipse><path class="st0" d="M179.97,93.62c-1.15,0-2.3-0.73-2.92-1.67c-0.8-1.21-0.95-2.66-1.04-4.16c-0.07-1.13-0.1-2.23,0.32-3.25
		c0.44-1.08,1.56-2.09,2.87-1.93c0.67,0.08,1.22,0.44,1.67,0.84c0.15-0.45,0.38-0.87,0.6-1.29c0.28-0.51,0.54-0.99,0.63-1.49
		c0.06-0.31,0.05-0.64,0.04-0.99c-0.01-0.3-0.01-0.6,0.01-0.9c0.14-1.53,1.21-2.9,2.65-3.42c1.21-0.43,2.46-0.26,3.68-0.09
		l0.13,0.02c1.97,0.27,4.29,0.5,6.61,0.19c1.65-0.23,4-0.85,5.84-2.53c0.13-0.12,0.31-0.16,0.47-0.11c0.17,0.05,0.3,0.18,0.34,0.34
		c1.75,6.06,2.34,12.73,1.76,19.82c-0.02,0.27-0.26,0.48-0.54,0.46c-0.28-0.02-0.48-0.26-0.46-0.54c0.54-6.68,0.03-12.97-1.52-18.72
		c-1.54,1.18-3.52,1.97-5.77,2.28c-2.44,0.34-4.85,0.09-6.88-0.19l-0.13-0.02c-1.09-0.15-2.23-0.31-3.2,0.04
		c-1.07,0.38-1.89,1.44-1.99,2.57c-0.02,0.26-0.02,0.52-0.01,0.78c0.01,0.39,0.02,0.79-0.05,1.2c-0.12,0.66-0.43,1.23-0.73,1.79
		c-0.34,0.64-0.67,1.24-0.63,1.85c0.01,0.21-0.11,0.41-0.31,0.49c-0.19,0.08-0.42,0.03-0.56-0.13c-0.55-0.62-1.11-1.18-1.76-1.25
		c-0.8-0.09-1.54,0.61-1.82,1.32c-0.33,0.82-0.31,1.76-0.24,2.81c0.08,1.36,0.21,2.67,0.88,3.68c0.61,0.92,1.9,1.55,2.86,1.03
		c0.24-0.14,0.55-0.05,0.68,0.19c0.13,0.24,0.05,0.55-0.19,0.68C180.82,93.52,180.39,93.62,179.97,93.62z"></path><path class="st0" d="M176.25,116.16c-0.03,0-0.06,0-0.09-0.01c-0.27-0.05-0.45-0.31-0.4-0.58c0.99-5.61,0.95-11.29-0.12-16.89
		c-0.01-0.04-0.01-0.08-0.01-0.12c0.1-2.32,0.86-4.38,2.2-5.95c0.18-0.21,0.5-0.23,0.71-0.06c0.21,0.18,0.24,0.49,0.06,0.71
		c-1.18,1.39-1.86,3.22-1.96,5.29c1.09,5.7,1.12,11.48,0.11,17.19C176.7,115.99,176.49,116.16,176.25,116.16z"></path><path class="st0" d="M207.72,97.72c-0.03,0-0.06,0-0.08-0.01l-10.83-1.85c-0.27-0.05-0.46-0.3-0.41-0.58
		c0.05-0.27,0.3-0.46,0.58-0.41l8.34,1.43c-3.87-2.78-6.82-6.93-8.09-11.51c-0.07-0.27,0.08-0.54,0.35-0.62
		c0.27-0.07,0.54,0.08,0.62,0.35c1.43,5.14,5.08,9.72,9.77,12.25c0.22,0.12,0.31,0.37,0.23,0.6
		C208.12,97.58,207.93,97.72,207.72,97.72z"></path><path class="st0" d="M196.12,113.39c-1.18,0-2.34-0.44-3.39-0.88c-3.87-1.63-8.68-4.06-11.57-8.35c-0.15-0.23-0.09-0.54,0.13-0.69
		c0.23-0.15,0.54-0.09,0.69,0.13c2.75,4.07,7.39,6.41,11.13,7.99c1.28,0.54,2.75,1.08,4.04,0.63c1.74-0.61,2.48-2.71,2.96-4.68
		c1.03-4.15,1.69-7.58,2.09-10.79c0.03-0.27,0.27-0.47,0.56-0.44c0.27,0.03,0.47,0.28,0.44,0.56c-0.4,3.26-1.07,6.72-2.11,10.91
		c-0.52,2.11-1.4,4.62-3.61,5.39C197.03,113.33,196.58,113.39,196.12,113.39z"></path><path class="st0" d="M193.01,117.59c-0.03,0-0.06,0-0.08-0.01c-0.27-0.05-0.46-0.31-0.41-0.58l0.75-4.38
		c0.05-0.27,0.3-0.45,0.58-0.41c0.27,0.05,0.46,0.3,0.41,0.58l-0.75,4.38C193.46,117.42,193.25,117.59,193.01,117.59z"></path><path class="st4" d="M169.54,84.65c-0.24,0-0.45-0.17-0.49-0.41c-0.85-4.49-0.28-8.96,1.58-12.58c2.08-4.05,5.79-6.96,9.91-7.77
		c0.27-0.05,0.53,0.12,0.59,0.39c0.05,0.27-0.12,0.53-0.39,0.59c-3.83,0.76-7.27,3.47-9.22,7.25c-1.76,3.43-2.29,7.67-1.49,11.94
		c0.05,0.27-0.13,0.53-0.4,0.58C169.6,84.64,169.57,84.65,169.54,84.65z"></path><path class="st0" d="M168.32,93.22c-0.1,0-0.21-0.03-0.3-0.1c-0.22-0.17-0.27-0.48-0.1-0.7c0.4-0.54,0.79-1.12,0.71-1.65
		c-0.04-0.23-0.16-0.46-0.29-0.71c-0.11-0.22-0.23-0.43-0.31-0.67c-0.34-0.98-0.02-2.01,0.29-2.8c-0.29,0.17-0.61,0.31-0.95,0.39
		c-0.15,0.04-0.31,0.06-0.46,0.09c-0.21,0.04-0.42,0.07-0.59,0.14c-0.43,0.17-0.78,0.62-0.94,1.21c-0.16,0.59-0.14,1.25-0.12,1.88
		c0.01,0.28-0.21,0.51-0.48,0.52c-0.24,0.03-0.51-0.21-0.52-0.48c-0.02-0.68-0.05-1.45,0.16-2.18c0.25-0.88,0.82-1.58,1.53-1.87
		c0.27-0.11,0.54-0.15,0.79-0.2c0.13-0.02,0.26-0.04,0.39-0.08c0.78-0.2,1.46-0.81,2.05-1.35c0.17-0.16,0.43-0.17,0.62-0.04
		c0.19,0.14,0.26,0.39,0.17,0.6l-0.55,1.32c-0.38,0.9-0.7,1.77-0.44,2.52c0.06,0.18,0.15,0.35,0.24,0.52
		c0.16,0.3,0.33,0.63,0.4,1.03c0.15,0.99-0.5,1.87-0.9,2.4C168.62,93.15,168.47,93.22,168.32,93.22z"></path><path class="st0" d="M169.96,103.86c-0.09,0-0.17-0.02-0.25-0.07c-0.24-0.14-0.32-0.45-0.18-0.69c0.83-1.4,2.48-2.25,4.09-2.13
		l0.18,0.02c0.23,0.02,0.45,0.04,0.59-0.02c0.14-0.06,0.27-0.24,0.32-0.46c0.07-0.26,0.05-0.57,0.03-0.89
		c-0.02-0.28,0.19-0.51,0.47-0.53c0.27-0.01,0.51,0.19,0.53,0.47c0.02,0.36,0.05,0.78-0.05,1.19c-0.13,0.53-0.47,0.95-0.91,1.14
		c-0.38,0.16-0.76,0.12-1.07,0.09l-0.16-0.02c-1.25-0.1-2.52,0.56-3.15,1.64C170.29,103.77,170.13,103.86,169.96,103.86z"></path><path class="st0" d="M198.05,82.47c-0.14,0-0.29-0.06-0.39-0.18c-0.18-0.21-0.14-0.53,0.07-0.7c1.3-1.07,3.11-1.45,4.74-1
		c0.27,0.07,0.42,0.35,0.35,0.62c-0.07,0.27-0.35,0.42-0.62,0.35c-1.31-0.36-2.78-0.05-3.83,0.81
		C198.27,82.44,198.16,82.47,198.05,82.47z"></path><path class="st0" d="M189.41,83.47c-0.15,0-0.3-0.07-0.39-0.19c-0.17-0.22-0.13-0.53,0.09-0.7c1.56-1.22,3.84-1.37,5.54-0.36
		c0.24,0.14,0.32,0.45,0.18,0.69s-0.45,0.32-0.69,0.18c-1.34-0.79-3.19-0.67-4.42,0.29C189.62,83.43,189.52,83.47,189.41,83.47z"></path><path class="st0" d="M192.49,102.75c-0.17,0-0.34-0.09-0.44-0.25c-0.24-0.43-0.52-0.92-0.61-1.48c-0.11-0.71,0.13-1.39,0.62-1.77
		c0.46-0.35,1.02-0.38,1.52-0.37c1.33,0,2.66,0.11,3.97,0.33c0.27,0.04,0.46,0.3,0.41,0.57c-0.04,0.27-0.3,0.46-0.57,0.41
		c-1.25-0.21-2.53-0.31-3.81-0.31c-0.35,0.01-0.71,0.01-0.92,0.17c-0.23,0.17-0.28,0.54-0.24,0.82c0.06,0.39,0.28,0.77,0.49,1.15
		c0.14,0.24,0.05,0.55-0.19,0.68C192.66,102.72,192.57,102.75,192.49,102.75z"></path><path class="st0" d="M185.65,136.04c-0.15,0-0.29-0.07-0.39-0.19l-11.98-14.97c-0.17-0.22-0.14-0.53,0.08-0.7
		c0.22-0.17,0.53-0.14,0.7,0.08l11.42,14.26l3.07-8.73c0.07-0.19,0.23-0.32,0.43-0.33c0.2-0.02,0.38,0.08,0.48,0.25l3.98,7.13
		l2.08-7.31c0.08-0.27,0.35-0.42,0.62-0.34c0.27,0.08,0.42,0.35,0.34,0.62l-2.41,8.47c-0.06,0.19-0.22,0.34-0.42,0.36
		c-0.2,0.03-0.4-0.08-0.49-0.25l-4.03-7.21l-3,8.53c-0.06,0.17-0.21,0.3-0.39,0.33C185.7,136.04,185.67,136.04,185.65,136.04z"></path><path class="st0" d="M177.2,194.57c-0.27,0-0.49-0.21-0.5-0.48c-0.23-5.19,1.48-10.19,3.13-15.02c1.33-3.89,2.71-7.92,3.05-12
		c0.39-4.65-0.55-9.37-1.63-13.78c-2.11-8.6-5.12-17.79-9.47-28.92c-0.1-0.26,0.03-0.55,0.28-0.65c0.26-0.1,0.55,0.03,0.65,0.28
		c4.37,11.17,7.39,20.4,9.51,29.05c1.1,4.49,2.06,9.31,1.66,14.1c-0.35,4.21-1.75,8.29-3.1,12.24c-1.62,4.75-3.3,9.65-3.08,14.66
		c0.01,0.28-0.2,0.51-0.48,0.52C177.21,194.57,177.21,194.57,177.2,194.57z"></path><path class="st0" d="M194.37,190.91c-0.22,0-0.42-0.15-0.48-0.37c-1.58-6.05-0.54-12.32,0.47-18.39c0.63-3.81,1.29-7.76,1.29-11.61
		c0-8.12-2.83-15.88-5.57-23.39c-0.09-0.26,0.04-0.55,0.3-0.64c0.26-0.09,0.55,0.04,0.64,0.3c2.64,7.23,5.63,15.43,5.63,23.73
		c0,3.94-0.66,7.92-1.3,11.78c-1.04,6.24-2.02,12.13-0.49,17.98c0.07,0.27-0.09,0.54-0.36,0.61
		C194.45,190.9,194.41,190.91,194.37,190.91z"></path><path class="st0" d="M202.63,189.21c-0.27,0-0.5-0.22-0.5-0.49c-0.09-7.11-0.19-14.46,1.74-21.49c0.16-0.58,0.33-1.15,0.5-1.73
		c0.44-1.46,0.89-2.98,1.09-4.5c0.43-3.31-0.34-6.7-1.23-10.18c-2.69-10.44-5.87-20.43-9.47-29.69c-0.1-0.26,0.03-0.55,0.29-0.65
		c0.26-0.1,0.55,0.03,0.65,0.29c3.61,9.3,6.8,19.33,9.5,29.81c0.92,3.57,1.71,7.07,1.26,10.55c-0.21,1.6-0.67,3.15-1.12,4.66
		c-0.17,0.57-0.34,1.14-0.5,1.71c-1.89,6.9-1.8,14.18-1.7,21.22C203.14,188.98,202.91,189.21,202.63,189.21
		C202.64,189.21,202.63,189.21,202.63,189.21z"></path><path class="st4" d="M206.15,191.39c-0.27,0-0.5-0.22-0.5-0.49c-0.09-8.04,2.42-16.07,7.06-22.63c0.24-0.34,0.48-0.69,0.5-1.02
		c0.02-0.3-0.16-0.65-0.31-0.95l-3.51-7.01c-0.3-0.6-0.67-1.34-0.63-2.17c0.06-1.03,0.75-1.85,1.26-2.46l2.42-2.87
		c0.19-0.22,0.36-0.44,0.36-0.61c0-0.13-0.1-0.31-0.18-0.47l-13.5-25.22c-0.13-0.24-0.04-0.55,0.21-0.68
		c0.24-0.13,0.55-0.04,0.68,0.21l13.5,25.22c0.13,0.24,0.3,0.56,0.3,0.95c0,0.56-0.36,0.98-0.59,1.26l-2.42,2.87
		c-0.54,0.64-0.99,1.22-1.03,1.87c-0.03,0.56,0.26,1.15,0.52,1.67l3.51,7.01c0.2,0.4,0.44,0.89,0.41,1.45
		c-0.03,0.62-0.38,1.11-0.68,1.54c-4.52,6.39-6.97,14.22-6.88,22.05C206.65,191.16,206.43,191.39,206.15,191.39
		C206.16,191.39,206.15,191.39,206.15,191.39z"></path><path class="st4" d="M171.04,193.18C171.03,193.18,171.03,193.18,171.04,193.18c-0.28,0-0.5-0.23-0.5-0.51
		c0.06-5.37-1.11-10.78-3.38-15.65c-0.27-0.59-0.57-1.22-0.51-1.92c0.06-0.73,0.5-1.33,0.82-1.78c2.43-3.34,5.08-6.58,7.87-9.63
		c0.36-0.39,0.46-0.67,0.4-0.77c-0.04-0.06-0.16-0.13-0.26-0.19l-7.39-4.43c-0.39-0.24-0.93-0.56-1.2-1.13
		c-0.3-0.65-0.12-1.34,0-1.85c3.05-12.21,3.58-21.97,1.7-30.72c-0.06-0.27,0.11-0.54,0.38-0.59c0.27-0.06,0.54,0.11,0.59,0.38
		c1.92,8.91,1.38,18.82-1.7,31.17c-0.12,0.47-0.2,0.89-0.06,1.19c0.12,0.27,0.44,0.47,0.8,0.69l7.39,4.43
		c0.18,0.11,0.43,0.26,0.59,0.52c0.24,0.38,0.35,1.04-0.51,1.97c-2.77,3.02-5.39,6.23-7.8,9.54c-0.33,0.45-0.6,0.85-0.63,1.27
		c-0.04,0.43,0.18,0.89,0.4,1.37c2.35,5.04,3.55,10.6,3.49,16.12C171.53,192.96,171.31,193.18,171.04,193.18z"></path><path class="st4" d="M154.19,146.45c-0.27,0-0.49-0.22-0.5-0.49c-0.12-4.76-0.24-9.69-1.98-14.19c-0.74-1.91-2.11-4.39-4.45-5.35
		c-0.26-0.1-0.38-0.4-0.27-0.65c0.1-0.26,0.4-0.38,0.65-0.27c2.11,0.86,3.84,2.91,5,5.92c1.8,4.66,1.92,9.68,2.05,14.52
		c0.01,0.28-0.21,0.51-0.49,0.51C154.2,146.45,154.2,146.45,154.19,146.45z"></path><path class="st4" d="M148.27,162.43c-0.08,0-0.15-0.02-0.23-0.05c-0.25-0.13-0.34-0.43-0.22-0.67l4.25-8.36
		c0.13-0.25,0.43-0.34,0.67-0.22c0.25,0.13,0.34,0.43,0.22,0.67l-4.25,8.36C148.63,162.33,148.45,162.43,148.27,162.43z"></path><path class="st4" d="M223.27,152.2c-0.23,0-0.43-0.16-0.49-0.39c-1.48-6.38-3.71-12.59-6.61-18.46c-0.12-0.25-0.02-0.55,0.23-0.67
		c0.25-0.12,0.55-0.02,0.67,0.23c2.94,5.94,5.19,12.22,6.69,18.67c0.06,0.27-0.1,0.54-0.37,0.6
		C223.35,152.19,223.31,152.2,223.27,152.2z"></path><path class="st4" d="M256.08,163.56c-0.26,0-0.48-0.21-0.5-0.47c-0.12-2.14-0.79-4.24-1.95-6.05c-0.15-0.23-0.08-0.54,0.15-0.69
		c0.23-0.15,0.54-0.08,0.69,0.15c1.25,1.96,1.98,4.22,2.1,6.53c0.02,0.28-0.2,0.51-0.47,0.53
		C256.1,163.56,256.09,163.56,256.08,163.56z"></path><path class="st4" d="M115.4,200.7c-0.14,0-0.27-0.06-0.37-0.17c-0.18-0.21-0.17-0.52,0.04-0.71c3.66-3.26,8.57-4.94,13.46-4.61
		c0.28,0.02,0.48,0.26,0.47,0.53c-0.02,0.28-0.26,0.49-0.53,0.47c-4.63-0.31-9.27,1.28-12.73,4.36
		C115.64,200.66,115.52,200.7,115.4,200.7z"></path><path class="st0" d="M227,215.31c-0.05,0-0.1-0.01-0.15-0.02c-0.26-0.08-0.41-0.37-0.32-0.63l1.76-5.46l-6.12-10.05l-13.18,0.14
		c-0.22-0.04-0.41-0.14-0.48-0.34c-0.48-1.45-2.05-2.49-3.57-2.39c-0.02,0-0.05,0-0.07,0c-1.16-0.03-50.9-0.03-51.41-0.03
		c-0.28,0-0.5-0.22-0.5-0.5s0.22-0.5,0.5-0.5l25.72,0c6.43,0,12.86,0,17.68,0.01l5.83,0.01c1.15,0,1.8,0,2.18,0.04l0-0.03
		c1.86-0.13,3.71,1.02,4.45,2.72l13.12-0.14c0.18-0.01,0.34,0.09,0.43,0.24l6.38,10.49c0.08,0.12,0.09,0.27,0.05,0.41l-1.83,5.68
		C227.41,215.18,227.21,215.31,227,215.31z"></path><path class="st0" d="M223.38,214.94c-0.06,0-0.13-0.01-0.19-0.04c-0.26-0.1-0.38-0.39-0.28-0.65c0.38-0.94,0.73-1.92,1.04-2.89
		c0.04-0.13,0.09-0.3,0.08-0.4c-0.02-0.1-0.12-0.23-0.21-0.34l-3.75-4.69c-0.17-0.22-0.14-0.53,0.08-0.7
		c0.22-0.17,0.53-0.14,0.7,0.08l3.75,4.69c0.15,0.18,0.35,0.44,0.41,0.77c0.07,0.35-0.03,0.66-0.1,0.89c-0.32,1-0.67,2-1.07,2.97
		C223.77,214.82,223.58,214.94,223.38,214.94z"></path><path class="st0" d="M220.48,215.68c-0.04,0-0.09-0.01-0.14-0.02c-0.27-0.07-0.42-0.35-0.35-0.62c0.22-0.77,0.4-1.57,0.08-2.14
		c-0.13-0.24-0.36-0.44-0.59-0.66l-3.16-2.89c-0.2-0.19-0.22-0.5-0.03-0.71c0.19-0.2,0.5-0.22,0.71-0.03l3.16,2.89
		c0.27,0.25,0.58,0.53,0.79,0.91c0.51,0.9,0.28,1.93,0.01,2.9C220.9,215.53,220.7,215.68,220.48,215.68z"></path><path class="st0" d="M215.93,215.81c-0.11,0-0.22-0.03-0.31-0.11c-1.08-0.84-2.1-1.77-3.05-2.77c-0.19-0.2-0.18-0.52,0.02-0.71
		c0.2-0.19,0.52-0.18,0.71,0.02c0.91,0.96,1.89,1.86,2.93,2.67c0.22,0.17,0.26,0.48,0.09,0.7
		C216.23,215.74,216.08,215.81,215.93,215.81z"></path><path class="st0" d="M210.25,211.59c-0.11,0-0.22-0.04-0.31-0.11c-0.21-0.17-0.25-0.49-0.07-0.7c2.29-2.84,4.78-5.57,7.38-8.11
		c0.2-0.19,0.52-0.19,0.71,0.01c0.19,0.2,0.19,0.51-0.01,0.71c-2.58,2.52-5.04,5.22-7.31,8.03
		C210.54,211.53,210.39,211.59,210.25,211.59z"></path><path class="st0" d="M227.18,205.96c-0.09,0-0.17-0.02-0.25-0.07c-0.24-0.14-0.32-0.45-0.18-0.68c0.48-0.81,0.87-1.68,1.16-2.58
		c0.14-0.42,0.31-1.17-0.04-1.5c-0.22-0.2-0.63-0.23-1.06-0.24l-3.33-0.06c-0.28,0-0.5-0.23-0.49-0.51s0.23-0.48,0.51-0.49
		l3.33,0.06c0.48,0.01,1.2,0.02,1.72,0.5c0.4,0.37,0.78,1.11,0.32,2.54c-0.31,0.97-0.73,1.9-1.25,2.78
		C227.52,205.87,227.35,205.96,227.18,205.96z"></path><path class="st0" d="M274.69,111.3c-0.27,0-0.49-0.21-0.5-0.48l-0.31-9.62c-0.03-0.81-0.05-1.65,0.09-2.48
		c0.13-0.81,0.42-1.57,0.69-2.3l1.01-2.71c0.15-0.4,0.32-0.85,0.61-1.24c0.8-1.09,2.17-1.36,3.5-1.55c0.27-0.04,0.53,0.15,0.57,0.42
		c0.04,0.27-0.15,0.53-0.42,0.57c-1.12,0.16-2.26,0.38-2.83,1.16c-0.21,0.28-0.34,0.65-0.47,1l-1.01,2.71
		c-0.26,0.69-0.52,1.4-0.64,2.11c-0.12,0.74-0.1,1.52-0.07,2.28l0.31,9.62c0.01,0.28-0.21,0.51-0.48,0.52
		C274.7,111.3,274.7,111.3,274.69,111.3z"></path><path class="st0" d="M288.28,114.73c-0.15,0-0.31-0.07-0.41-0.21c-0.16-0.22-0.11-0.54,0.11-0.7l4.38-3.18
		c0.02-0.01,0.04-0.03,0.06-0.05c-0.02,0-0.03-0.05-0.03-0.07c-0.87-3.71-0.56-7.34,0.87-10.22c1.61-3.23,4.68-5.44,7.92-5.74
		c-0.06-0.18-0.21-0.41-0.41-0.69c-0.37-0.51-0.82-1.15-0.57-1.89c0.02-0.07,0.06-0.14,0.09-0.21c0.01-0.02,0.02-0.04,0.03-0.06
		c-0.03-0.02-0.07-0.03-0.13-0.06l-1.36-0.55c-0.2-0.08-0.33-0.29-0.31-0.51l0.12-1.37c-0.73-0.61-4.42-2.89-7.8-4.89
		c-2.53,0.49-5.03,1.88-7.07,3.92c-1.84,1.85-3.35,4.25-4.5,7.14c-0.1,0.26-0.39,0.38-0.65,0.28c-0.26-0.1-0.38-0.39-0.28-0.65
		c1.2-3.01,2.79-5.53,4.72-7.47c2.23-2.24,4.99-3.74,7.78-4.24c0.12-0.02,0.24,0,0.34,0.06c8.27,4.89,8.39,5.31,8.45,5.54
		c0.02,0.06,0.02,0.12,0.02,0.18l-0.11,1.22l1.01,0.41c0.18,0.07,0.66,0.27,0.76,0.75c0.06,0.3-0.05,0.55-0.13,0.71
		c-0.02,0.04-0.04,0.08-0.05,0.12c-0.08,0.23,0.12,0.54,0.44,0.98c0.38,0.53,0.86,1.2,0.5,1.96c-0.08,0.17-0.25,0.28-0.43,0.29
		c-3.04,0.11-5.98,2.16-7.5,5.21c-1.33,2.67-1.61,6.06-0.79,9.55c0.04,0.16,0.1,0.43-0.02,0.71c-0.1,0.23-0.28,0.36-0.4,0.45
		l-4.39,3.18C288.48,114.7,288.38,114.73,288.28,114.73z"></path><path class="st0" d="M286.06,117.99c-0.13,0-0.26-0.05-0.36-0.15c-0.19-0.2-0.18-0.52,0.02-0.71c0.49-0.47,1-0.95,1.28-1.54
		c0.22-0.47,0.29-1.13-0.05-1.56c-0.1-0.13-0.25-0.25-0.41-0.38c-0.32-0.27-0.69-0.57-0.82-1.07c-0.1-0.35-0.05-0.67,0-0.96
		c0.27-1.77,0.16-3.3-0.33-4.6c-0.56-1.48-1.67-2.66-2.96-3.14c-0.2-0.07-0.71-0.26-0.76-0.79c-0.02-0.26,0.09-0.46,0.15-0.56
		c0.95-1.69,2.61-2.69,4.22-3.67c0.25-0.15,0.5-0.3,0.75-0.46c0.33-0.21,0.68-0.46,0.71-0.73c0.04-0.33-0.35-0.67-0.7-0.86
		c-1.26-0.7-2.91-0.82-4.66-0.34c-1.61,0.45-3.11,1.32-4.55,2.16c-0.24,0.14-0.54,0.06-0.68-0.18c-0.14-0.24-0.06-0.54,0.18-0.68
		c1.5-0.88,3.05-1.78,4.79-2.26c2-0.55,3.92-0.4,5.41,0.43c0.84,0.47,1.29,1.17,1.21,1.86c-0.09,0.69-0.64,1.12-1.18,1.46
		c-0.25,0.16-0.5,0.31-0.76,0.46c-1.47,0.89-2.99,1.81-3.82,3.22c0.01,0,0.03,0.01,0.04,0.01c1.56,0.58,2.89,1.97,3.55,3.72
		c0.55,1.46,0.68,3.16,0.39,5.06c-0.04,0.25-0.07,0.44-0.03,0.58c0.05,0.2,0.26,0.37,0.5,0.57c0.18,0.15,0.39,0.32,0.55,0.53
		c0.53,0.67,0.59,1.69,0.17,2.6c-0.36,0.76-0.96,1.33-1.49,1.84C286.31,117.94,286.18,117.99,286.06,117.99z"></path><path class="st0" d="M287.91,108.14c-0.01,0-0.01,0-0.02,0c-0.28-0.01-0.49-0.24-0.48-0.52c0.28-6.74,3.67-13.18,9.07-17.23
		c0.22-0.16,0.53-0.12,0.7,0.1c0.17,0.22,0.12,0.53-0.1,0.7c-5.16,3.87-8.4,10.03-8.67,16.47
		C288.4,107.93,288.18,108.14,287.91,108.14z"></path><path class="st0" d="M290.16,94.62c-0.1,0-0.2-0.03-0.29-0.09c-0.23-0.16-0.28-0.47-0.12-0.7c1.15-1.63,2.49-3.11,3.99-4.42
		c0.01-0.01,0.03-0.02,0.04-0.03c-0.27-0.22-0.62-0.4-0.99-0.59c-0.37-0.19-0.76-0.39-1.11-0.68c-0.13-0.11-0.26-0.24-0.38-0.36
		c-0.2-0.2-0.4-0.4-0.61-0.49c-0.21-0.09-0.49-0.11-0.78-0.13c-0.49-0.03-1.05-0.06-1.5-0.47c-0.21-0.19-0.22-0.5-0.04-0.71
		c0.18-0.2,0.5-0.22,0.71-0.04c0.19,0.17,0.51,0.19,0.89,0.21c0.35,0.02,0.75,0.04,1.13,0.21c0.38,0.17,0.66,0.45,0.91,0.7
		c0.1,0.1,0.21,0.21,0.32,0.3c0.26,0.22,0.58,0.38,0.92,0.56c0.44,0.23,0.9,0.46,1.29,0.85c0.11,0.11,0.23,0.26,0.28,0.48
		c0.1,0.49-0.29,0.83-0.42,0.94c-1.44,1.25-2.73,2.68-3.83,4.24C290.47,94.55,290.31,94.62,290.16,94.62z M293.84,89.43
		L293.84,89.43L293.84,89.43z"></path></g><g id="desk_1_"><path class="st0" d="M417.5,440.61h-335c-0.55,0-1-0.45-1-1v-198c0-0.55,0.45-1,1-1h335c0.55,0,1,0.45,1,1v198
		C418.5,440.16,418.05,440.61,417.5,440.61z M83.5,438.61h333v-196h-333V438.61z"></path><polygon class="st0" points="82.5,246.86 82.5,241.61 417.5,241.61 417.5,267.58 	"></polygon><path class="st0" d="M257.88,288.7v10.24c4.11,0.66,7.47,2.02,10.09,4.08s5.1,5.21,7.47,9.46l-10.19,5.7
		c-3.07-5.58-7.07-8.36-12.02-8.36c-3.07,0-5.61,0.91-7.63,2.72c-2.02,1.81-3.03,4.08-3.03,6.8c0,2.47,0.82,4.53,2.46,6.17
		c1.6,1.6,4.84,3.5,9.72,5.7c4.22,1.92,7.7,3.72,10.45,5.41c2.75,1.69,4.83,3.32,6.22,4.89c3.94,4.25,5.91,9.39,5.91,15.42
		c0,5.92-1.78,11.15-5.33,15.68c-3.52,4.5-8.22,7.53-14.11,9.09v10.82h-9.15V382c-6.83-1.12-12.04-3.47-15.63-7.06
		s-6.24-9.13-7.94-16.62l11.5-2.4c1.57,5.3,3.48,9.08,5.75,11.34c2.37,2.16,5.52,3.24,9.46,3.24c3.83,0,7.04-1.24,9.62-3.71
		c2.54-2.44,3.82-5.59,3.82-9.46c0-3.45-1.06-6.22-3.19-8.31c-1.08-1.01-2.67-2.15-4.78-3.42c-2.11-1.27-4.8-2.66-8.08-4.16
		c-6.76-3.03-11.2-5.82-13.33-8.36c-3.38-3.8-5.07-8.35-5.07-13.64c0-2.51,0.4-4.84,1.2-7c0.8-2.16,1.96-4.12,3.48-5.88
		c1.52-1.76,3.39-3.28,5.62-4.57c2.23-1.29,4.76-2.3,7.58-3.03V288.7H257.88z"></path><path class="st3" d="M255.39,288.7v10.24c4.11,0.66,7.47,2.02,10.09,4.08c2.61,2.06,5.1,5.21,7.47,9.46l-10.19,5.7
		c-3.07-5.58-7.07-8.36-12.02-8.36c-3.07,0-5.61,0.91-7.63,2.72c-2.02,1.81-3.03,4.08-3.03,6.8c0,2.47,0.82,4.53,2.46,6.17
		c1.6,1.6,4.84,3.5,9.72,5.7c4.22,1.92,7.7,3.72,10.45,5.41c2.75,1.69,4.83,3.32,6.22,4.89c3.94,4.25,5.91,9.39,5.91,15.42
		c0,5.92-1.78,11.15-5.33,15.68c-3.52,4.5-8.22,7.53-14.11,9.09v10.82h-9.15V382c-6.83-1.12-12.04-3.47-15.63-7.06
		s-6.24-9.13-7.94-16.62l11.5-2.4c1.57,5.3,3.48,9.08,5.75,11.34c2.37,2.16,5.52,3.24,9.46,3.24c3.83,0,7.04-1.24,9.62-3.71
		c2.54-2.44,3.82-5.59,3.82-9.46c0-3.45-1.06-6.22-3.19-8.31c-1.08-1.01-2.67-2.15-4.78-3.42c-2.11-1.27-4.8-2.66-8.08-4.16
		c-6.76-3.03-11.2-5.82-13.33-8.36c-3.38-3.8-5.07-8.35-5.07-13.64c0-2.51,0.4-4.84,1.2-7s1.96-4.12,3.48-5.88
		c1.52-1.76,3.39-3.28,5.62-4.57c2.23-1.29,4.76-2.3,7.58-3.03V288.7H255.39z"></path><path class="st3" d="M353.44,223.61c0.1-0.68,0.2-0.9,0.31-1.58c0.02-0.16,0.05-0.32-0.01-0.47c-0.07-0.17-0.23-0.29-0.33-0.44
		c-0.57-0.82,0.63-1.9,0.36-2.86c-0.22-0.78-1.36-1.35-1.01-2.09c0.25-0.53,1.21-0.71,1.09-1.28c-0.07-0.32-0.48-0.51-0.47-0.84
		c0-0.16,0.12-0.3,0.21-0.43c0.85-1.26,0.17-3.26,1.3-4.28c1.19,2.38,3.72,4.04,6.38,4.18l42.14,0.33c0,0-0.58,2.31-0.36,2.63
		c0.45,0.1,0.52,0.73,0.36,1.16c-0.16,0.43-0.46,0.85-0.39,1.3c0.07,0.48,0.53,0.82,0.68,1.28c0.09,0.27,0.06,0.55,0.04,0.83
		c-0.09,1.04-0.18,1.51-0.27,2.54H353.44z"></path><path class="st1" d="M383.76,213.47v10.16h6.79v-10.16C390.55,213.47,383.89,213.47,383.76,213.47z"></path><path class="st3" d="M403,213.18c-0.1-0.68-0.2-0.9-0.31-1.58c-0.02-0.16-0.05-0.32,0.01-0.47c0.07-0.17,0.23-0.29,0.33-0.44
		c0.57-0.82-0.63-1.9-0.36-2.86c0.22-0.78,1.36-1.35,1.01-2.09c-0.25-0.53-1.21-0.71-1.09-1.28c0.07-0.32,0.48-0.51,0.47-0.84
		c0-0.16-0.12-0.3-0.21-0.43c-0.85-1.26-0.17-3.26-1.3-4.28c-1.19,2.38-3.72,4.04-6.38,4.18l-42.14,0.33c0,0,0.58,2.31,0.36,2.63
		c-0.45,0.1-0.52,0.73-0.36,1.16c0.16,0.43,0.46,0.85,0.39,1.3c-0.07,0.48-0.53,0.82-0.68,1.28c-0.09,0.27-0.06,0.55-0.04,0.83
		c0.09,1.04,0.18,1.51,0.27,2.54H403z"></path><path class="st1" d="M372.67,203.05v10.16h-6.79v-10.16C365.88,203.05,372.55,203.05,372.67,203.05z"></path><path class="st3" d="M353.42,203.01c0.1-0.68,0.2-0.9,0.31-1.58c0.02-0.16,0.05-0.32-0.01-0.47c-0.07-0.17-0.23-0.29-0.33-0.44
		c-0.57-0.82,0.63-1.9,0.36-2.86c-0.22-0.78-1.36-1.35-1.01-2.09c0.25-0.53,1.21-0.71,1.09-1.28c-0.07-0.32-0.48-0.51-0.47-0.84
		c0-0.16,0.12-0.3,0.21-0.43c0.85-1.26,0.17-3.26,1.3-4.28c1.19,2.38,3.72,4.04,6.38,4.18l42.14,0.33c0,0-0.58,2.31-0.36,2.63
		c0.45,0.1,0.52,0.73,0.36,1.16c-0.16,0.43-0.46,0.85-0.39,1.3c0.07,0.48,0.53,0.82,0.68,1.28c0.09,0.27,0.06,0.55,0.04,0.83
		c-0.09,1.04-0.18,1.51-0.27,2.54H353.42z"></path><path class="st1" d="M383.75,192.88v10.16h6.79v-10.16C390.54,192.88,383.87,192.88,383.75,192.88z"></path><path class="st3" d="M413.27,192.84c-0.1-0.68-0.2-0.9-0.31-1.58c-0.02-0.16-0.05-0.32,0.01-0.47c0.07-0.17,0.23-0.29,0.33-0.44
		c0.57-0.82-0.63-1.9-0.36-2.86c0.22-0.78,1.36-1.35,1.01-2.09c-0.25-0.53-1.21-0.71-1.09-1.28c0.07-0.32,0.48-0.51,0.47-0.84
		c0-0.16-0.12-0.3-0.21-0.43c-0.85-1.26-0.17-3.26-1.3-4.28c-1.19,2.38-3.72,4.04-6.38,4.18l-42.14,0.33c0,0,0.58,2.31,0.36,2.63
		c-0.45,0.1-0.52,0.73-0.36,1.16c0.16,0.43,0.46,0.85,0.39,1.3c-0.07,0.48-0.53,0.82-0.68,1.28c-0.09,0.27-0.06,0.55-0.04,0.83
		c0.09,1.04,0.18,1.51,0.27,2.54H413.27z"></path><path class="st1" d="M382.95,182.71v10.16h-6.79v-10.16C376.16,182.71,382.82,182.71,382.95,182.71z"></path><polygon class="st1" points="188.92,225.08 193.24,216.11 254.63,216.11 276.24,157.54 343.79,157.54 320.66,224 	"></polygon><ellipse class="st2" transform="matrix(0.3614 -0.9324 0.9324 0.3614 11.5994 399.5583)" cx="297.51" cy="191.31" rx="8.5" ry="5.12"></ellipse><rect class="st2" x="69" y="223.61" width="362" height="18"></rect><path class="st4" d="M300.98,199.96c-0.47,0-0.93-0.08-1.38-0.25c-1.45-0.56-2.44-1.99-2.79-4.01c-0.34-1.94-0.05-4.21,0.8-6.41
		c1.82-4.71,5.56-7.49,8.5-6.36c2.94,1.14,3.82,5.72,1.99,10.42C306.55,197.34,303.63,199.96,300.98,199.96z M304.74,183.67
		c-2.21,0-4.81,2.42-6.19,5.97l0,0c-0.79,2.03-1.05,4.12-0.75,5.88c0.29,1.67,1.06,2.82,2.17,3.25c2.38,0.92,5.61-1.67,7.2-5.79
		c1.59-4.11,0.96-8.21-1.42-9.13C305.43,183.73,305.09,183.67,304.74,183.67z"></path><path class="st0" d="M189.44,223.93c-0.07,0-0.15-0.02-0.22-0.05c-0.25-0.12-0.35-0.42-0.23-0.67l3.48-7.17
		c0.08-0.17,0.26-0.28,0.45-0.28h61.38l21.4-58.57c0.07-0.2,0.26-0.33,0.47-0.33h67.6c0.16,0,0.31,0.08,0.41,0.21
		c0.09,0.13,0.12,0.3,0.07,0.45l-22.5,65.97c-0.09,0.26-0.37,0.4-0.63,0.31c-0.26-0.09-0.4-0.37-0.31-0.63l22.27-65.3h-66.55
		l-21.4,58.57c-0.07,0.2-0.26,0.33-0.47,0.33h-61.41l-3.34,6.89C189.8,223.83,189.62,223.93,189.44,223.93z"></path><path class="st0" d="M353.29,223.85C353.29,223.85,353.28,223.85,353.29,223.85c-0.28,0-0.5-0.23-0.5-0.51
		c0-0.35,0.1-0.68,0.19-0.96c0.04-0.11,0.07-0.23,0.1-0.34c0.08-0.32,0.06-0.59-0.05-0.71c-0.03-0.03-0.06-0.06-0.09-0.09
		c-0.12-0.11-0.31-0.28-0.38-0.54c-0.11-0.38,0.08-0.71,0.16-0.86l0.1-0.18c0.29-0.51,0.58-1.04,0.4-1.39
		c-0.07-0.12-0.2-0.25-0.35-0.39c-0.31-0.29-0.73-0.69-0.63-1.31c0.07-0.45,0.4-0.73,0.66-0.95c0.1-0.09,0.26-0.23,0.28-0.29
		c-0.01-0.01-0.06-0.08-0.09-0.12c-0.05-0.07-0.1-0.15-0.14-0.22c-0.29-0.55-0.13-1.17-0.03-1.55c0.09-0.51,0.09-0.51,23.53-0.47
		c5.48,0.01,23.59,0.06,26.58,0.27c0.38,0.03,0.85,0.06,0.86,0.54c0,0.04,0,0.08-0.01,0.13l-0.39,1.71c0,0,0.01,0.01,0.01,0.01
		c0.48,0.44,0.69,1.04,0.57,1.59c-0.06,0.27-0.19,0.48-0.31,0.67c-0.06,0.09-0.12,0.19-0.16,0.29c-0.12,0.28-0.05,0.65,0.17,0.87
		l0.08,0.08c0.11,0.1,0.25,0.23,0.34,0.43c0.2,0.43,0.04,0.86-0.07,1.15c-0.24,0.65-0.29,1.29-0.17,1.92
		c0.05,0.27-0.13,0.53-0.4,0.58c-0.27,0.05-0.53-0.13-0.58-0.4c-0.15-0.8-0.08-1.63,0.2-2.4c0.06-0.16,0.14-0.37,0.12-0.43
		c-0.01-0.02-0.08-0.08-0.12-0.12l-0.12-0.11c-0.5-0.5-0.65-1.3-0.38-1.95c0.06-0.15,0.14-0.29,0.23-0.43
		c0.09-0.14,0.16-0.26,0.19-0.37c0.04-0.19-0.06-0.44-0.27-0.63c-0.12-0.1-0.28-0.25-0.34-0.5c-0.04-0.17,0-0.32,0.01-0.41
		l0.28-1.24c-5-0.32-44.98-0.22-48.97-0.17c-0.03,0.19-0.03,0.35,0.03,0.47c0.02,0.04,0.05,0.08,0.08,0.12
		c0.09,0.12,0.21,0.29,0.25,0.52c0.12,0.59-0.32,0.97-0.6,1.22c-0.13,0.11-0.31,0.27-0.33,0.36c-0.01,0.09,0.17,0.27,0.33,0.42
		c0.19,0.18,0.39,0.38,0.54,0.64c0.45,0.83-0.04,1.71-0.4,2.36l-0.1,0.17c-0.04,0.07-0.05,0.11-0.06,0.13
		c0-0.01,0.05,0.02,0.08,0.05c0.06,0.05,0.12,0.11,0.17,0.16c0.34,0.38,0.45,0.96,0.28,1.62c-0.03,0.13-0.07,0.27-0.11,0.4
		c-0.08,0.24-0.15,0.47-0.15,0.68C353.78,223.64,353.56,223.85,353.29,223.85z"></path><path class="st0" d="M371.1,223.71c0,0-0.01,0-0.02,0c-0.28-0.01-0.49-0.24-0.48-0.52l0.05-1.68c0-0.06,0.01-0.21-0.01-0.24
		c-0.01-0.02-0.08-0.08-0.13-0.11c-0.11-0.09-0.25-0.19-0.36-0.36c-0.28-0.44-0.19-1.02,0.24-1.58l0.08-0.1
		c0.15-0.19,0.3-0.38,0.3-0.52c0-0.13-0.17-0.32-0.33-0.5c-0.27-0.31-0.61-0.69-0.57-1.24c0.05-0.52,0.41-0.83,0.71-1.08
		c0.14-0.12,0.27-0.23,0.34-0.34c0.06-0.1,0.08-0.23,0.04-0.37c-0.04-0.14-0.12-0.25-0.22-0.29c-0.25-0.12-0.35-0.42-0.23-0.67
		c0.12-0.25,0.42-0.35,0.67-0.23c0.36,0.17,0.64,0.51,0.75,0.92s0.06,0.84-0.15,1.18c-0.15,0.24-0.36,0.41-0.54,0.57
		c-0.18,0.15-0.34,0.29-0.35,0.4c-0.01,0.12,0.16,0.3,0.32,0.48c0.25,0.28,0.56,0.63,0.58,1.13c0.02,0.51-0.28,0.88-0.52,1.18
		l-0.08,0.1c-0.18,0.23-0.21,0.4-0.19,0.42c0.01,0.02,0.08,0.07,0.13,0.11c0.12,0.09,0.27,0.21,0.38,0.4
		c0.16,0.28,0.15,0.58,0.15,0.78l-0.05,1.67C371.59,223.49,371.37,223.71,371.1,223.71z"></path><path class="st0" d="M383.85,223.36c-0.28,0-0.5-0.22-0.5-0.5v-9.02c0-0.28,0.22-0.5,0.5-0.5s0.5,0.22,0.5,0.5v9.02
		C384.35,223.14,384.12,223.36,383.85,223.36z"></path><path class="st2" d="M387.42,222.09c-0.28,0-0.5-0.22-0.5-0.5v-5.73c0-0.28,0.22-0.5,0.5-0.5s0.5,0.22,0.5,0.5v5.73
		C387.92,221.87,387.7,222.09,387.42,222.09z"></path><path class="st0" d="M390.41,223.31c-0.28,0-0.5-0.22-0.5-0.5v-8.82c0-0.28,0.22-0.5,0.5-0.5s0.5,0.22,0.5,0.5v8.82
		C390.91,223.09,390.69,223.31,390.41,223.31z"></path><path class="st0" d="M366.89,215.91H356.2c-0.28,0-0.5-0.22-0.5-0.5s0.22-0.5,0.5-0.5h10.69c0.28,0,0.5,0.22,0.5,0.5
		S367.16,215.91,366.89,215.91z"></path><path class="st0" d="M368.9,218.41h-11.86c-0.28,0-0.5-0.22-0.5-0.5s0.22-0.5,0.5-0.5h11.86c0.28,0,0.5,0.22,0.5,0.5
		S369.17,218.41,368.9,218.41z"></path><path class="st0" d="M363.36,220.86h-7.99c-0.28,0-0.5-0.22-0.5-0.5s0.22-0.5,0.5-0.5h7.99c0.28,0,0.5,0.22,0.5,0.5
		S363.63,220.86,363.36,220.86z"></path><path class="st0" d="M369.78,222.58h-7.21c-0.28,0-0.5-0.22-0.5-0.5s0.22-0.5,0.5-0.5h7.21c0.28,0,0.5,0.22,0.5,0.5
		S370.05,222.58,369.78,222.58z"></path><path class="st0" d="M359.7,213.97c-0.08,0-0.16-0.02-0.24-0.06c-1.55-0.85-3.43-1.88-4.6-3.54c-0.41,0.92-0.58,1.94-0.5,2.94
		c0.02,0.28-0.18,0.52-0.45,0.54c-0.27,0.02-0.52-0.18-0.54-0.45c-0.13-1.5,0.24-3.03,1.04-4.3c0.1-0.15,0.26-0.24,0.45-0.23
		c0.18,0.01,0.34,0.11,0.42,0.27c0.87,1.71,2.63,2.78,4.66,3.89c0.24,0.13,0.33,0.44,0.2,0.68
		C360.05,213.87,359.88,213.97,359.7,213.97z"></path><path class="st0" d="M403.14,213.43c-0.27,0-0.5-0.22-0.5-0.49c0-0.21-0.07-0.44-0.15-0.69c-0.04-0.13-0.08-0.26-0.11-0.39
		c-0.16-0.66-0.06-1.24,0.28-1.62c0.05-0.06,0.11-0.11,0.17-0.16c0.02-0.02,0.06-0.05,0.08-0.07c-0.01-0.01-0.03-0.05-0.06-0.1
		l-0.1-0.18c-0.36-0.64-0.85-1.52-0.4-2.35c0.14-0.26,0.35-0.46,0.54-0.64c0.16-0.16,0.35-0.33,0.33-0.42
		c-0.01-0.09-0.19-0.25-0.32-0.36c-0.29-0.25-0.72-0.63-0.61-1.22c0.04-0.23,0.16-0.4,0.25-0.52c0.03-0.04,0.06-0.08,0.08-0.12
		c0.06-0.12,0.06-0.28,0.03-0.46c-3.99-0.04-43.97-0.15-48.97,0.17l0.28,1.23c0.02,0.08,0.05,0.23,0.02,0.41
		c-0.06,0.25-0.22,0.4-0.32,0.49c-0.22,0.2-0.33,0.45-0.28,0.64c0.03,0.11,0.1,0.23,0.19,0.38c0.08,0.14,0.17,0.28,0.23,0.42
		c0.27,0.65,0.12,1.46-0.38,1.96l-0.12,0.11c-0.04,0.04-0.1,0.1-0.12,0.12c-0.02,0.06,0.06,0.27,0.1,0.38
		c0.3,0.82,0.37,1.65,0.22,2.45c-0.05,0.27-0.32,0.45-0.58,0.4c-0.27-0.05-0.45-0.31-0.4-0.58c0.12-0.63,0.06-1.27-0.16-1.87
		c-0.13-0.35-0.29-0.77-0.08-1.2c0.09-0.2,0.24-0.33,0.34-0.43l0.08-0.07c0.22-0.22,0.29-0.58,0.17-0.87
		c-0.04-0.1-0.1-0.19-0.16-0.29c-0.12-0.19-0.25-0.41-0.31-0.68c-0.13-0.55,0.09-1.16,0.57-1.59c0,0,0.01-0.01,0.02-0.02l-0.4-1.69
		c-0.01-0.04-0.01-0.08-0.01-0.13c0.01-0.48,0.48-0.52,0.86-0.54c2.99-0.21,21.1-0.26,26.58-0.27c23.45-0.04,23.44-0.04,23.53,0.51
		c0.09,0.33,0.25,0.96-0.04,1.51c-0.04,0.08-0.09,0.15-0.14,0.23c-0.03,0.05-0.08,0.12-0.09,0.14c0.02,0.04,0.18,0.19,0.28,0.27
		c0.26,0.23,0.58,0.51,0.66,0.96c0.1,0.61-0.32,1.01-0.63,1.3c-0.14,0.14-0.28,0.27-0.35,0.39c-0.19,0.35,0.11,0.88,0.39,1.39
		l0.1,0.18c0.08,0.14,0.26,0.48,0.16,0.86c-0.08,0.27-0.26,0.43-0.38,0.54c-0.03,0.03-0.06,0.06-0.09,0.09
		c-0.11,0.13-0.13,0.39-0.06,0.71c0.03,0.11,0.06,0.23,0.1,0.34c0.09,0.29,0.19,0.61,0.19,0.97
		C403.65,213.2,403.43,213.43,403.14,213.43C403.15,213.43,403.15,213.43,403.14,213.43z"></path><path class="st0" d="M385.33,213.28c-0.27,0-0.49-0.21-0.5-0.48l-0.05-1.68c-0.01-0.2-0.02-0.49,0.15-0.77
		c0.11-0.19,0.26-0.31,0.38-0.4c0.05-0.04,0.11-0.09,0.13-0.11c0.02-0.03-0.01-0.2-0.19-0.42l-0.08-0.1
		c-0.24-0.3-0.54-0.67-0.52-1.18c0.02-0.49,0.33-0.84,0.58-1.13c0.16-0.18,0.33-0.37,0.32-0.48c-0.01-0.11-0.18-0.25-0.35-0.4
		c-0.18-0.15-0.39-0.33-0.54-0.57c-0.22-0.34-0.27-0.77-0.15-1.18s0.39-0.75,0.75-0.92c0.25-0.12,0.55-0.02,0.67,0.23
		c0.12,0.25,0.02,0.55-0.23,0.67c-0.1,0.05-0.19,0.16-0.22,0.29c-0.04,0.14-0.03,0.27,0.04,0.37c0.07,0.11,0.2,0.22,0.34,0.34
		c0.29,0.25,0.66,0.56,0.71,1.08c0.05,0.55-0.29,0.93-0.57,1.24c-0.16,0.18-0.32,0.36-0.33,0.5c-0.01,0.14,0.15,0.33,0.3,0.52
		l0.08,0.1c0.44,0.56,0.52,1.13,0.24,1.58c-0.11,0.17-0.25,0.28-0.36,0.36c-0.04,0.04-0.11,0.09-0.13,0.11
		c-0.02,0.04-0.01,0.18-0.01,0.24l0.05,1.68c0.01,0.28-0.21,0.51-0.48,0.52C385.34,213.28,385.34,213.28,385.33,213.28z"></path><path class="st0" d="M372.59,212.94c-0.28,0-0.5-0.22-0.5-0.5v-9.02c0-0.28,0.22-0.5,0.5-0.5s0.5,0.22,0.5,0.5v9.02
		C373.09,212.72,372.86,212.94,372.59,212.94z"></path><path class="st2" d="M369.01,211.67c-0.28,0-0.5-0.22-0.5-0.5v-5.73c0-0.28,0.22-0.5,0.5-0.5s0.5,0.22,0.5,0.5v5.73
		C369.51,211.44,369.28,211.67,369.01,211.67z"></path><path class="st0" d="M366.02,212.89c-0.28,0-0.5-0.22-0.5-0.5v-8.82c0-0.28,0.22-0.5,0.5-0.5s0.5,0.22,0.5,0.5v8.82
		C366.52,212.67,366.29,212.89,366.02,212.89z"></path><path class="st0" d="M400.23,205.49h-10.69c-0.28,0-0.5-0.22-0.5-0.5s0.22-0.5,0.5-0.5h10.69c0.28,0,0.5,0.22,0.5,0.5
		S400.51,205.49,400.23,205.49z"></path><path class="st0" d="M399.4,207.99h-11.86c-0.28,0-0.5-0.22-0.5-0.5s0.22-0.5,0.5-0.5h11.86c0.28,0,0.5,0.22,0.5,0.5
		S399.67,207.99,399.4,207.99z"></path><path class="st0" d="M396.73,203.55c-0.18,0-0.35-0.09-0.44-0.26c-0.13-0.24-0.04-0.55,0.2-0.68c1.66-0.91,3.72-2.04,4.66-3.89
		c0.08-0.16,0.24-0.26,0.42-0.27c0.18-0.01,0.35,0.08,0.45,0.23c0.8,1.27,1.17,2.8,1.04,4.3c-0.02,0.28-0.27,0.48-0.54,0.45
		c-0.28-0.02-0.48-0.27-0.45-0.54c0.09-1-0.09-2.02-0.5-2.94c-1.17,1.66-3.05,2.69-4.6,3.54
		C396.89,203.53,396.81,203.55,396.73,203.55z"></path><path class="st0" d="M353.27,203.26C353.27,203.26,353.27,203.26,353.27,203.26c-0.28,0-0.5-0.23-0.5-0.51
		c0.01-0.35,0.11-0.68,0.19-0.96c0.04-0.11,0.07-0.23,0.1-0.34c0.08-0.32,0.06-0.58-0.06-0.71c-0.03-0.03-0.06-0.06-0.09-0.09
		c-0.12-0.11-0.31-0.28-0.38-0.54c-0.09-0.34,0.03-0.64,0.16-0.86l0.1-0.18c0.29-0.51,0.58-1.04,0.39-1.39
		c-0.07-0.12-0.2-0.25-0.35-0.39c-0.31-0.29-0.73-0.7-0.63-1.31c0.07-0.45,0.39-0.73,0.65-0.95c0.1-0.09,0.26-0.23,0.28-0.29
		c-0.01-0.01-0.06-0.08-0.09-0.12c-0.05-0.07-0.1-0.15-0.14-0.22c-0.29-0.55-0.13-1.17-0.03-1.55c0.09-0.51,0.09-0.51,23.52-0.47
		c5.48,0.01,23.58,0.06,26.59,0.27c0.38,0.03,0.85,0.06,0.87,0.54c0,0.04,0,0.08-0.01,0.13l-0.39,1.71c0,0,0.01,0.01,0.01,0.01
		c0.48,0.44,0.69,1.05,0.57,1.59c-0.06,0.27-0.19,0.49-0.31,0.68c-0.06,0.09-0.12,0.19-0.16,0.29c-0.12,0.28-0.05,0.65,0.17,0.86
		l0.08,0.08c0.11,0.1,0.25,0.23,0.34,0.43c0.2,0.43,0.05,0.84-0.06,1.15c-0.24,0.65-0.29,1.3-0.17,1.92
		c0.05,0.27-0.13,0.53-0.4,0.58c-0.27,0.05-0.53-0.13-0.58-0.4c-0.15-0.8-0.08-1.63,0.2-2.4c0.06-0.16,0.14-0.37,0.12-0.43
		c-0.01-0.02-0.08-0.08-0.12-0.12l-0.12-0.11c-0.49-0.5-0.65-1.3-0.38-1.95c0.06-0.15,0.15-0.29,0.23-0.43
		c0.09-0.14,0.16-0.26,0.19-0.37c0.04-0.19-0.06-0.44-0.27-0.63c-0.12-0.1-0.28-0.25-0.34-0.5c-0.04-0.17,0-0.32,0.02-0.41
		l0.28-1.23c-5-0.33-44.97-0.21-48.97-0.17c-0.03,0.19-0.03,0.35,0.03,0.47c0.02,0.04,0.05,0.08,0.08,0.12
		c0.09,0.12,0.21,0.29,0.25,0.52c0.12,0.59-0.32,0.97-0.6,1.22c-0.13,0.11-0.31,0.27-0.33,0.36c-0.02,0.09,0.17,0.27,0.33,0.42
		c0.18,0.18,0.39,0.38,0.54,0.64c0.45,0.83-0.04,1.71-0.4,2.35l-0.1,0.18c-0.04,0.07-0.05,0.11-0.06,0.13
		c0.02-0.01,0.05,0.02,0.08,0.05c0.06,0.05,0.12,0.11,0.17,0.16c0.34,0.38,0.45,0.96,0.28,1.62c-0.03,0.13-0.07,0.26-0.11,0.4
		c-0.08,0.24-0.15,0.47-0.15,0.68C353.77,203.04,353.54,203.26,353.27,203.26z"></path><path class="st0" d="M371.08,203.11c0,0-0.01,0-0.02,0c-0.28-0.01-0.49-0.24-0.48-0.52l0.05-1.68c0-0.06,0.01-0.2-0.01-0.24
		c-0.01-0.02-0.08-0.08-0.13-0.11c-0.11-0.09-0.25-0.19-0.36-0.36c-0.28-0.44-0.19-1.02,0.24-1.58l0.08-0.1
		c0.15-0.19,0.31-0.38,0.3-0.52c0-0.13-0.17-0.32-0.33-0.5c-0.27-0.31-0.61-0.69-0.57-1.24c0.04-0.52,0.41-0.83,0.71-1.08
		c0.14-0.12,0.27-0.23,0.34-0.34c0.06-0.1,0.07-0.23,0.04-0.37s-0.12-0.25-0.22-0.3c-0.25-0.12-0.35-0.42-0.23-0.67
		c0.12-0.25,0.42-0.35,0.67-0.23c0.36,0.17,0.64,0.51,0.75,0.92s0.06,0.84-0.15,1.18c-0.15,0.24-0.36,0.41-0.54,0.57
		c-0.18,0.15-0.34,0.29-0.35,0.4c-0.01,0.12,0.16,0.31,0.32,0.48c0.25,0.28,0.57,0.63,0.58,1.13c0.02,0.51-0.28,0.88-0.52,1.18
		l-0.08,0.1c-0.18,0.23-0.21,0.4-0.19,0.42c0.01,0.02,0.08,0.07,0.13,0.11c0.12,0.09,0.27,0.21,0.38,0.4
		c0.16,0.28,0.15,0.58,0.15,0.77l-0.05,1.68C371.57,202.9,371.35,203.11,371.08,203.11z"></path><path class="st0" d="M383.83,202.77c-0.28,0-0.5-0.22-0.5-0.5v-9.02c0-0.28,0.22-0.5,0.5-0.5s0.5,0.22,0.5,0.5v9.02
		C384.33,202.55,384.11,202.77,383.83,202.77z"></path><path class="st2" d="M387.41,201.5c-0.28,0-0.5-0.22-0.5-0.5v-5.73c0-0.28,0.22-0.5,0.5-0.5s0.5,0.22,0.5,0.5V201
		C387.91,201.27,387.69,201.5,387.41,201.5z"></path><path class="st0" d="M390.4,202.72c-0.28,0-0.5-0.22-0.5-0.5v-8.82c0-0.28,0.22-0.5,0.5-0.5s0.5,0.22,0.5,0.5v8.82
		C390.9,202.5,390.68,202.72,390.4,202.72z"></path><path class="st0" d="M366.87,195.32h-10.69c-0.28,0-0.5-0.22-0.5-0.5s0.22-0.5,0.5-0.5h10.69c0.28,0,0.5,0.22,0.5,0.5
		S367.15,195.32,366.87,195.32z"></path><path class="st0" d="M368.88,197.82h-11.86c-0.28,0-0.5-0.22-0.5-0.5s0.22-0.5,0.5-0.5h11.86c0.28,0,0.5,0.22,0.5,0.5
		S369.16,197.82,368.88,197.82z"></path><path class="st0" d="M359.69,193.37c-0.08,0-0.16-0.02-0.24-0.06c-1.55-0.85-3.43-1.88-4.6-3.54c-0.41,0.92-0.58,1.94-0.5,2.94
		c0.02,0.27-0.18,0.52-0.46,0.54c-0.28,0.02-0.52-0.18-0.54-0.45c-0.13-1.5,0.24-3.03,1.04-4.3c0.1-0.15,0.26-0.25,0.45-0.23
		c0.18,0.01,0.34,0.11,0.42,0.27c0.94,1.85,3,2.98,4.66,3.89c0.24,0.13,0.33,0.44,0.2,0.68
		C360.03,193.28,359.86,193.37,359.69,193.37z"></path><path class="st0" d="M413.42,193.09c-0.27,0-0.5-0.22-0.5-0.49c0-0.21-0.07-0.44-0.15-0.68c-0.04-0.13-0.08-0.26-0.11-0.39
		c-0.16-0.66-0.06-1.24,0.28-1.62c0.05-0.06,0.11-0.11,0.17-0.16c0.02-0.02,0.06-0.05,0.08-0.07c-0.01-0.01-0.03-0.05-0.06-0.1
		l-0.1-0.18c-0.36-0.64-0.85-1.52-0.4-2.35c0.14-0.26,0.35-0.46,0.54-0.64c0.16-0.16,0.35-0.33,0.33-0.42
		c-0.01-0.09-0.19-0.25-0.33-0.36c-0.29-0.25-0.72-0.63-0.61-1.22c0.04-0.23,0.16-0.4,0.25-0.52c0.03-0.04,0.06-0.08,0.08-0.12
		c0.06-0.12,0.06-0.28,0.03-0.46c-3.99-0.04-43.97-0.15-48.97,0.17l0.28,1.23c0.02,0.09,0.06,0.24,0.01,0.42
		c-0.05,0.24-0.22,0.39-0.32,0.48c-0.22,0.2-0.33,0.46-0.29,0.65c0.03,0.11,0.1,0.23,0.19,0.38c0.08,0.14,0.17,0.28,0.23,0.42
		c0.27,0.65,0.12,1.46-0.38,1.96l-0.11,0.11c-0.04,0.04-0.11,0.1-0.12,0.12c-0.02,0.05,0.06,0.27,0.1,0.37
		c0.3,0.82,0.37,1.66,0.22,2.46c-0.05,0.27-0.32,0.44-0.58,0.4c-0.27-0.05-0.45-0.31-0.4-0.58c0.12-0.62,0.06-1.27-0.16-1.87
		c-0.13-0.36-0.29-0.77-0.08-1.2c0.1-0.2,0.24-0.33,0.35-0.43l0.08-0.07c0.21-0.22,0.29-0.58,0.17-0.87
		c-0.04-0.1-0.1-0.19-0.16-0.29c-0.12-0.19-0.25-0.41-0.31-0.68c-0.12-0.54,0.09-1.15,0.57-1.59c0,0,0,0,0.01-0.01l-0.39-1.71
		c-0.01-0.04-0.01-0.08-0.01-0.12c0.01-0.48,0.5-0.52,0.85-0.54c2.96-0.21,21.08-0.26,26.57-0.27c23.46-0.04,23.46-0.04,23.56,0.51
		c0.09,0.33,0.25,0.96-0.04,1.51c-0.04,0.08-0.09,0.15-0.14,0.22c-0.03,0.05-0.08,0.12-0.09,0.14c0.02,0.04,0.18,0.19,0.28,0.27
		c0.26,0.23,0.58,0.51,0.66,0.96c0.1,0.61-0.32,1.01-0.63,1.3c-0.14,0.14-0.28,0.27-0.35,0.39c-0.19,0.35,0.11,0.88,0.4,1.39
		l0.1,0.18c0.08,0.14,0.26,0.48,0.15,0.86c-0.07,0.26-0.26,0.43-0.38,0.54c-0.03,0.03-0.06,0.06-0.09,0.09
		c-0.11,0.13-0.13,0.39-0.06,0.71c0.03,0.11,0.06,0.23,0.1,0.34c0.09,0.29,0.19,0.61,0.19,0.96
		C413.93,192.86,413.71,193.09,413.42,193.09C413.43,193.09,413.43,193.09,413.42,193.09z"></path><path class="st0" d="M395.61,192.94c-0.27,0-0.49-0.21-0.5-0.48l-0.05-1.68c-0.01-0.2-0.02-0.49,0.15-0.77
		c0.11-0.19,0.26-0.31,0.38-0.4c0.05-0.04,0.11-0.09,0.13-0.11c0.02-0.03-0.01-0.2-0.19-0.42l-0.08-0.1
		c-0.24-0.3-0.54-0.67-0.52-1.18c0.02-0.49,0.33-0.84,0.58-1.13c0.16-0.18,0.33-0.36,0.32-0.48c-0.01-0.11-0.18-0.25-0.35-0.4
		c-0.18-0.15-0.39-0.33-0.54-0.57c-0.22-0.34-0.27-0.77-0.16-1.18s0.39-0.75,0.75-0.92c0.25-0.12,0.55-0.02,0.67,0.23
		c0.12,0.25,0.02,0.55-0.23,0.67c-0.1,0.05-0.19,0.16-0.22,0.3c-0.04,0.14-0.03,0.27,0.04,0.37c0.07,0.11,0.2,0.22,0.34,0.34
		c0.29,0.25,0.66,0.56,0.71,1.08c0.05,0.55-0.29,0.93-0.57,1.24c-0.16,0.18-0.32,0.36-0.33,0.5c-0.01,0.14,0.15,0.33,0.3,0.52
		l0.08,0.1c0.44,0.56,0.52,1.13,0.24,1.57c-0.11,0.17-0.25,0.28-0.36,0.36c-0.04,0.04-0.11,0.09-0.13,0.11
		c-0.02,0.04-0.01,0.18-0.01,0.24l0.05,1.68c0.01,0.28-0.21,0.51-0.48,0.52C395.62,192.94,395.62,192.94,395.61,192.94z"></path><path class="st0" d="M382.86,192.6c-0.28,0-0.5-0.22-0.5-0.5v-9.02c0-0.28,0.22-0.5,0.5-0.5s0.5,0.22,0.5,0.5v9.02
		C383.36,192.38,383.14,192.6,382.86,192.6z"></path><path class="st2" d="M379.29,191.33c-0.28,0-0.5-0.22-0.5-0.5v-5.73c0-0.28,0.22-0.5,0.5-0.5s0.5,0.22,0.5,0.5v5.73
		C379.79,191.1,379.56,191.33,379.29,191.33z"></path><path class="st0" d="M376.3,192.55c-0.28,0-0.5-0.22-0.5-0.5v-8.82c0-0.28,0.22-0.5,0.5-0.5s0.5,0.22,0.5,0.5v8.82
		C376.8,192.33,376.57,192.55,376.3,192.55z"></path><path class="st0" d="M410.51,185.15h-10.69c-0.28,0-0.5-0.22-0.5-0.5s0.22-0.5,0.5-0.5h10.69c0.28,0,0.5,0.22,0.5,0.5
		S410.79,185.15,410.51,185.15z"></path><path class="st0" d="M409.68,187.65h-11.86c-0.28,0-0.5-0.22-0.5-0.5s0.22-0.5,0.5-0.5h11.86c0.28,0,0.5,0.22,0.5,0.5
		S409.95,187.65,409.68,187.65z"></path><path class="st0" d="M407.01,183.2c-0.18,0-0.35-0.09-0.44-0.26c-0.13-0.24-0.04-0.55,0.2-0.68c1.66-0.91,3.72-2.04,4.66-3.89
		c0.08-0.16,0.24-0.26,0.42-0.27c0.17-0.01,0.35,0.08,0.45,0.23c0.8,1.27,1.17,2.8,1.04,4.3c-0.02,0.28-0.27,0.48-0.54,0.45
		c-0.28-0.02-0.48-0.27-0.46-0.54c0.09-1-0.09-2.02-0.5-2.94c-1.17,1.66-3.05,2.69-4.6,3.54
		C407.17,183.18,407.09,183.2,407.01,183.2z"></path></g></svg>