<svg transform="scale(1)" version="1.1" id="Layer_1" xmlns="http://www.w3.org/2000/svg" xmlns:xlink="http://www.w3.org/1999/xlink" x="0px" y="0px" viewBox="0 0 500 500" xml:space="preserve" class="show_show__wrapper__graphic__5Waiy "><title>React</title><style type="text/css">
	.st0{fill:#eef0f1;}
	.st1{fill:#FFFFFF;}
	.st2{fill:#231F20;}
	.st3{fill:#C4C800;}
</style><g id="Shadow"><ellipse class="st0" cx="242.5" cy="408.6" rx="110.4" ry="9.4"></ellipse></g><g id="Character"><path class="st1" d="M322.2,139c1.6-2.9,2.5-6,2.8-9.3c0.1-1.9-0.4-6.4-1.4-8s-2.6-2.4-3.7-3.8c-2.1-2.7-1.4-6.6-0.7-10
		c1.8-9.7-7.8-20.2-16.4-23.6c-3.9-1.6-8.1-2-12.2-1.1c-1.9,0.3-3.8,0.9-5.5,2c-1.5,1.1-2.3,2.7-3.9,3.5c-1.3,0.7-2.7,0.7-4,1.3
		c-0.6,0.3-1.2,0.7-1.7,1.1c-3.7,3.3-8,11.8-6.4,16.8c0.6,1.8,1.2,3.9,0,5.3c-0.6,0.6-1.3,1-2.1,1.2c-4.7,1.4-12.6,2.2-9,9.5
		c0.9,1.9,2.4,3.8,2.2,5.9c-0.4,3.8-5.1,5-7.7,7.8c-3.8,4.3-1.5,11.4,2.9,15.1c6.9,5.8,16.8,6.1,25.8,5.4c9.5-0.6,19.2-1.9,27.7-6.4
		C314.5,148.9,319.1,144.5,322.2,139z"></path><path class="st2" d="M275,159.1c-7.2,0-14.6-1.2-20.1-5.8c-2.9-2.4-4.6-5.9-5-9.6c-0.2-2.3,0.5-4.7,2.1-6.4c1-1,2.2-1.9,3.4-2.7
		c2-1.4,3.9-2.7,4.1-4.8c0.1-1.4-0.6-2.8-1.4-4.3c-0.2-0.4-0.5-0.9-0.7-1.3c-1.1-2.2-1.3-4-0.6-5.4c1.2-2.6,4.8-3.6,8-4.4
		c0.7-0.2,1.4-0.4,2-0.6c0.7-0.2,1.3-0.5,1.8-1c0.9-1.1,0.5-2.8-0.1-4.7c-1.7-5.4,2.8-14,6.6-17.4c0.6-0.5,1.2-0.9,1.9-1.2
		c0.6-0.3,1.3-0.5,2-0.6c0.7-0.1,1.4-0.4,2-0.6c0.8-0.5,1.5-1.1,2-1.8c0.5-0.6,1.1-1.2,1.8-1.7c1.7-1.1,3.7-1.9,5.7-2.2
		c4.2-0.9,8.6-0.5,12.6,1.1c9.4,3.7,18.6,14.6,16.8,24.3v0.2c-0.6,3.2-1.3,6.9,0.6,9.4c0.5,0.6,1,1.1,1.6,1.6
		c0.8,0.6,1.6,1.4,2.2,2.3c1.1,1.8,1.6,6.6,1.5,8.4c-0.3,3.4-1.2,6.6-2.9,9.6l0,0c-3.2,5.6-7.9,10.2-13.6,13.1
		c-8.8,4.6-19,5.9-28,6.5C279.2,159,277.1,159.1,275,159.1z M295,83.3c-1.4,0-2.9,0.2-4.3,0.5c-1.9,0.2-3.6,0.9-5.2,1.9
		c-0.6,0.4-1.1,0.9-1.5,1.5c-0.7,0.8-1.5,1.6-2.4,2.1c-0.7,0.3-1.5,0.6-2.2,0.7c-0.6,0.1-1.2,0.3-1.8,0.6c-0.6,0.2-1.1,0.6-1.6,1
		c-3.5,3.1-7.7,11.4-6.2,16.1c0.6,1.8,1.4,4.2-0.1,5.9c-0.6,0.7-1.5,1.2-2.4,1.4c-0.6,0.2-1.3,0.4-2,0.6c-2.9,0.8-6.2,1.6-7.2,3.7
		c-0.5,1.1-0.3,2.5,0.6,4.3c0.2,0.4,0.4,0.8,0.7,1.3c0.9,1.6,1.8,3.2,1.6,5c-0.2,2.7-2.5,4.2-4.7,5.7c-1.1,0.7-2.2,1.6-3.1,2.5
		c-1.3,1.5-1.9,3.5-1.8,5.5c0.3,3.4,2,6.5,4.6,8.7c6.7,5.7,16.6,5.9,25.4,5.3s18.9-1.8,27.4-6.3c5.5-2.8,10.1-7.2,13.1-12.6
		c1.5-2.8,2.5-5.9,2.7-9.1c0.1-1.8-0.5-6.2-1.3-7.6c-0.5-0.8-1.2-1.4-1.9-2c-0.7-0.5-1.3-1.1-1.8-1.8c-2.3-2.9-1.5-6.9-0.9-10.4
		v-0.2c1.8-9.5-8.1-19.8-16-22.9C300.1,83.8,297.6,83.3,295,83.3z M322.2,139L322.2,139z"></path><path class="st2" d="M260.9,406.2c0,0-4.9,6.1-3.6,8.1s24.2-2.2,27.1-4.3s11.5-16.9,11.7-17.4s-7.1-8.4-7.1-8.4L260.9,406.2z"></path><path class="st2" d="M259.9,415.4c-0.6,0-1.3,0-1.9-0.1c-0.5,0-0.9-0.3-1.2-0.7c-1.4-2.2,2.8-7.7,3.7-8.8c0,0,0.1-0.1,0.1-0.1
		l28.1-22.1c0.3-0.2,0.6-0.2,0.8,0.1c7.5,8.2,7.4,8.6,7.2,9c-0.2,0.7-8.9,15.6-11.9,17.7C282.3,412.2,266.5,415.4,259.9,415.4z
		 M261.4,406.6c-1.8,2.3-4.2,6.2-3.5,7.3c1.6,1.3,23.2-2.4,26.3-4.5c2.6-1.8,10.3-14.9,11.4-16.9c-0.6-0.9-3.6-4.4-6.5-7.6
		L261.4,406.6z"></path><path class="st2" d="M284.6,404.7c0,0-5.4,8.5-3.7,10s20-1.4,21.4-2.3s7.8-15.5,7.8-15.5l0.2,7.7l3.5-2.1c0,0-3-18-4.3-19.1
		S284.6,404.7,284.6,404.7z"></path><path class="st2" d="M283.6,415.7c-1.1,0.1-2.2-0.1-3.1-0.5c-1.9-1.6,1.9-8.1,3.6-10.8c0,0,0.1-0.1,0.1-0.1
		c23.8-22.8,25.1-21.8,25.6-21.3c1.4,1.2,3.8,15.2,4.5,19.5c0,0.2-0.1,0.5-0.3,0.6l-3.5,2.1c-0.2,0.1-0.4,0.1-0.6,0
		c-0.2-0.1-0.3-0.3-0.3-0.5l-0.1-5c-2.1,4.7-5.7,12.5-6.9,13.2C301.8,413.4,289.7,415.7,283.6,415.7z M285.1,405.1
		c-2.7,4.3-4.5,8.5-3.8,9.1c1.4,1,18.9-1.3,20.6-2.4c0.8-0.6,4.4-8.2,7.5-15.2c0.1-0.3,0.4-0.4,0.7-0.4c0.3,0.1,0.5,0.3,0.5,0.6
		l0.2,6.6l2.2-1.3c-1.4-8-3.1-16.7-3.9-18.2C306.9,384.9,295.3,395.4,285.1,405.1L285.1,405.1z"></path><path class="st1" d="M270.6,379.1l1.5,9.5c0,0-6.4,11.7-11.2,17.5c0,0,8.4-1.2,12.2-3s15.9-19.1,15.9-19.1l-4.9-13.2L270.6,379.1z"></path><path class="st2" d="M260.9,406.8c-0.2,0-0.4-0.1-0.6-0.3c-0.1-0.2-0.1-0.5,0.1-0.7c4.4-5.3,10.2-15.7,11-17.3l-1.4-9.3
		c0-0.3,0.1-0.5,0.3-0.6l13.5-8.2c0.2-0.1,0.4-0.1,0.5,0c0.2,0.1,0.3,0.2,0.4,0.4l4.9,13.2c0.1,0.2,0,0.4-0.1,0.6
		c-0.5,0.7-12.2,17.4-16.1,19.3s-12,3-12.4,3.1H260.9z M271.3,379.4l1.4,9.1c0,0.1,0,0.3-0.1,0.4c-3.1,5.7-6.5,11.1-10.2,16.4
		c2.6-0.4,7.7-1.4,10.4-2.7c3-1.4,12-13.6,15.5-18.6l-4.5-12.2L271.3,379.4z"></path><path class="st1" d="M295.7,377.6c-0.5,3.3-1.4,6.5-2.6,9.6c-1.9,4.9-8.5,17.5-8.5,17.5l16.1,1.4c0,0,6.7-11.2,7.4-14.5
		s1.9-14.4,1.9-14.4L295.7,377.6z"></path><path class="st2" d="M300.7,406.7L300.7,406.7l-16.1-1.4c-0.4,0-0.6-0.4-0.6-0.7c0-0.1,0-0.2,0.1-0.2c0.1-0.1,6.7-12.6,8.5-17.4
		c1.1-3.1,2-6.2,2.5-9.5c0-0.3,0.3-0.5,0.6-0.5l14.4-0.4c0.2,0,0.4,0.1,0.5,0.2c0.1,0.1,0.2,0.3,0.2,0.5c0,0.5-1.2,11.1-1.9,14.4
		s-7.2,14.2-7.5,14.7C301.2,406.6,300.9,406.7,300.7,406.7z M285.6,404.2l14.7,1.2c1.1-1.9,6.5-11.2,7.2-14s1.5-11,1.8-13.5
		l-13.1,0.4c-0.6,3.1-1.4,6.2-2.5,9.2C292.1,391.7,287.2,401.2,285.6,404.2z"></path><path class="st2" d="M316.6,228.9c6.9,9.7,10.2,21.4,9.3,33.3c-1.1,16.3-5.6,86-12.5,118.2l-19,1.6l-9.1-110l1.6-41.4L316.6,228.9z
		"></path><path class="st2" d="M294.4,382.6c-0.1,0-0.3-0.1-0.4-0.1c-0.1-0.1-0.2-0.3-0.2-0.4l-9.1-110l1.6-41.5c0-0.3,0.3-0.6,0.6-0.6
		l29.6-1.7c0.2,0,0.4,0.1,0.5,0.2c6.9,9.8,10.3,21.7,9.5,33.7l-0.1,2c-3.8,56.5-7.9,95.6-12.3,116.3c-0.1,0.3-0.3,0.5-0.6,0.5
		L294.4,382.6L294.4,382.6z M287.5,231.2L286,272l9,109.3l17.9-1.5c4.4-20.7,8.5-59.6,12.2-115.7l0.1-2c0.8-11.6-2.4-23.1-9-32.6
		L287.5,231.2z"></path><path class="st2" d="M293.7,229.6l-32.5,1.8c0,0-22.6,67.4-22.6,79.4s27.6,76.2,27.6,76.2l22.6-11.5l-20.3-58.7l29.9-52.2
		L293.7,229.6z"></path><path class="st2" d="M266.1,387.8c-0.1,0-0.1,0-0.2,0c-0.2-0.1-0.3-0.2-0.4-0.3c-1.1-2.6-27.6-64.5-27.6-76.5s21.7-76.9,22.7-79.6
		c0.1-0.2,0.3-0.4,0.5-0.4l32.5-1.9c0.3,0,0.6,0.2,0.6,0.5l4.5,35.1c0,0.1,0,0.3-0.1,0.4L269,317l20.2,58.4c0.1,0.3,0,0.6-0.3,0.8
		l-22.6,11.5C266.3,387.8,266.2,387.8,266.1,387.8z M261.6,232c-1.9,5.6-22.5,67.5-22.5,78.9c0,11.1,24.5,68.8,27.3,75.4l21.5-11
		l-20.1-58.1c-0.1-0.2-0.1-0.3,0-0.5l29.8-52l-4.4-34.3L261.6,232z"></path><path class="st2" d="M265.3,174.3c0,0-54.5,17.6-61.9,11.1S193.2,124,193.2,124l18.8-4.9c0,0,8.9,36.3,10.8,37.4
		c1.6,1,24.5-7.9,47.3-13.1"></path><path class="st2" d="M209.9,187.4c-3.2,0-5.7-0.4-6.9-1.5c-7.5-6.6-10.2-59.6-10.4-61.8c0-0.3,0.2-0.6,0.5-0.6l18.8-4.9
		c0.2,0,0.3,0,0.5,0.1c0.1,0.1,0.2,0.2,0.3,0.4c3.4,13.6,9.2,35.7,10.6,37.1c0.8,0.2,7-1.7,13.4-3.8c8.9-2.8,21.2-6.6,33.3-9.4
		c0.3-0.1,0.7,0.1,0.7,0.5c0.1,0.3-0.1,0.7-0.5,0.7l0,0c-12.1,2.7-24.3,6.6-33.2,9.4c-10.8,3.4-13.6,4.2-14.5,3.6
		c-1.9-1.2-8.6-28-10.9-37.2l-17.7,4.6c0.3,5.5,3.1,54.6,9.9,60.5c5.9,5.1,46.3-6.4,61.3-11.2c0.3-0.1,0.7,0.2,0.7,0.5
		c0.1,0.3-0.1,0.6-0.3,0.7C263.6,175.5,226.5,187.4,209.9,187.4z"></path><path class="st3" d="M284,141.6c0,0-13.7,12.1-15.8,21.4s-2.9,68.2-2.9,68.2l41.5,4.2c0,0-3.2-65.1,1.3-76.2s6.2-16.5,6.2-16.5
		L284,141.6z"></path><path class="st1" d="M286.1,131.7l-1.4,13.8c0,0,0.7,7.9,9.3,6.3c5.2-1,9.6-4.2,12.1-8.9c0.4-0.8,0.1-2.6,0.2-3.6l0.4-8.1
		c0.2-4.1,0.8-8.3,0.7-12.3c-0.1-4.9,1.6-9.8-4-10.8c-2.6-0.4-10.9-2.6-10.7-6.5c-0.1,2.7,0.8,5.4,2.5,7.5l-4.8-3.2
		c-1.6-0.9-3-2.1-4.2-3.5c-1.2-1.4-1.7-3.3-1.4-5.1c-7.6,7.6-6.4,17.2-6.5,27C278.4,128.9,281.4,132.4,286.1,131.7z"></path><path class="st2" d="M291.9,152.7c-1.7,0.1-3.4-0.5-4.8-1.5c-1.7-1.4-2.8-3.4-3-5.6l1.3-13.2c-1.9,0.1-3.7-0.5-5.1-1.7
		c-1.7-1.6-2.7-3.9-2.6-6.3c0-1.2,0-2.4,0-3.6c-0.1-8.8-0.2-17,6.7-23.9c0.2-0.2,0.5-0.2,0.8-0.1c0.3,0.1,0.4,0.4,0.3,0.7
		c-0.3,1.6,0.2,3.3,1.3,4.5c1.2,1.3,2.6,2.4,4.1,3.3l2.4,1.6c-0.8-1.7-1.1-3.5-1-5.3c0-0.3,0.3-0.6,0.6-0.6c0,0,0,0,0,0
		c0.4,0,0.6,0.3,0.6,0.7l0,0c-0.1,3.1,6.8,5.3,10.2,5.8c5,0.8,4.8,4.7,4.6,8.3c0,1-0.1,2-0.1,3c0,2.8-0.1,5.6-0.4,8.3
		c-0.1,1.4-0.2,2.7-0.3,4.1l-0.4,8.1c0,0.3,0,0.6,0,1c0.1,0.9,0,1.9-0.3,2.8c-2.6,4.8-7.2,8.2-12.6,9.2
		C293.4,152.6,292.7,152.7,291.9,152.7z M285.4,145.6c0.3,1.8,1.2,3.4,2.5,4.6c1.5,1.1,3.5,1.5,6,1c5-0.9,9.2-4.1,11.6-8.5
		c0.2-0.7,0.2-1.5,0.1-2.2c0-0.4,0-0.8,0-1.1l0.4-8.1c0.1-1.4,0.2-2.7,0.3-4.1c0.3-2.7,0.4-5.5,0.4-8.2c0-1.1,0-2.1,0.1-3.1
		c0.2-4.1,0.2-6.4-3.5-7c-0.1,0-6.5-1.1-9.6-3.8c0.4,1.4,1.1,2.7,2,3.8c0.2,0.2,0.2,0.6,0,0.8c-0.2,0.2-0.6,0.3-0.8,0.1l-4.8-3.2
		c-1.6-1-3.1-2.2-4.4-3.6c-0.9-1.1-1.5-2.4-1.6-3.8c-5.3,6.2-5.2,13.7-5.1,21.7c0,1.2,0,2.4,0,3.6c-0.1,2,0.7,3.9,2.2,5.3
		c1.4,1.1,3.1,1.6,4.9,1.3c0.2,0,0.4,0,0.5,0.2c0.1,0.1,0.2,0.3,0.2,0.5L285.4,145.6L285.4,145.6z"></path><path class="st2" d="M285.6,138.5c0,0,5.6,0.8,9.5-2.6s3.8-7.2,3.8-7.2s-6.5,3.5-12.8,3L285.6,138.5z"></path><path class="st2" d="M287,139.2c-0.5,0-1,0-1.5-0.1c-0.3-0.1-0.5-0.3-0.5-0.7l0.6-6.8c0-0.3,0.3-0.6,0.7-0.6
		c6.1,0.4,12.4-2.9,12.4-3c0.2-0.1,0.4-0.1,0.6,0c0.2,0.1,0.3,0.3,0.3,0.5c0,0.2,0.1,4.2-4,7.7C293.1,138.3,290.1,139.3,287,139.2z
		 M286.2,138c1.5,0.1,5.5,0,8.5-2.5c1.8-1.4,3-3.5,3.5-5.7c-3.6,1.7-7.5,2.6-11.5,2.6L286.2,138z"></path><path class="st2" d="M288,121.6c-1.2,0.1-2.3-0.3-3.2-1.1c-1.1-1.4,2.1-5.8,4.1-8.2c0.2-0.3,0.6-0.3,0.9-0.1c0,0,0,0,0,0
		c0.3,0.2,0.3,0.6,0.1,0.9c-2.4,3-4.3,6.1-4.1,6.7c0.5,0.7,2.5,0.6,3.4,0.5c0.3-0.1,0.7,0.2,0.7,0.5c0,0,0,0,0,0
		c0,0.3-0.2,0.7-0.5,0.7C288.9,121.6,288.5,121.6,288,121.6z"></path><path class="st1" d="M303.5,111.4c0.7-1.7,1.7-3.2,3-4.4c1.4-1.2,3.3-1.5,5-0.7c1.7,1,2.1,3.4,1.9,5.3c-0.3,2.3-0.9,4.4-1.8,6.5
		c-0.4,1.3-1.2,2.4-2.2,3.3c-1.1,0.9-2.6,1-3.7,0.2"></path><path class="st2" d="M307.3,122.7c-0.7,0-1.4-0.2-2-0.7c-0.3-0.2-0.3-0.6-0.1-0.9c0.2-0.3,0.6-0.3,0.9-0.1c0,0,0,0,0,0
		c0.9,0.6,2.1,0.5,2.9-0.2c0.9-0.8,1.6-1.8,2-3c0.9-2,1.5-4.1,1.8-6.3c0.1-0.8,0.2-3.6-1.6-4.7c-1.4-0.7-3.1-0.4-4.3,0.7
		c-1.2,1.2-2.2,2.6-2.9,4.2c-0.2,0.3-0.5,0.4-0.9,0.3c-0.3-0.2-0.4-0.5-0.3-0.9l0,0c0.7-1.8,1.8-3.3,3.2-4.6c1.4-1.2,3.9-2,5.8-0.8
		c2.4,1.4,2.3,4.6,2.2,6c-0.3,2.3-0.9,4.6-1.9,6.7c-0.5,1.4-1.3,2.6-2.4,3.5C309,122.5,308.2,122.7,307.3,122.7z"></path><ellipse class="st2" cx="298.9" cy="112.2" rx="0.8" ry="2.1"></ellipse><ellipse class="st2" cx="283.5" cy="112.2" rx="0.8" ry="2.1"></ellipse><path class="st2" d="M284.4,116h-4.2c-2.4,0-4.4-2-4.4-4.4v-2.4c0-0.3,0.3-0.6,0.6-0.6h11.8c0.3,0,0.6,0.3,0.6,0.6v2.4
		C288.8,114,286.8,116,284.4,116z M277,109.8v1.8c0,1.7,1.4,3.1,3.1,3.1h4.2c1.7,0,3.1-1.4,3.1-3.1v-1.8H277z"></path><path class="st2" d="M298.7,116h-4.2c-2.4,0-4.4-2-4.4-4.4v-2.4c0-0.3,0.3-0.6,0.6-0.6h11.8c0.3,0,0.6,0.3,0.6,0.6v2.4
		C303.1,114,301.1,116,298.7,116z M291.3,109.8v1.8c0,1.7,1.4,3.1,3.1,3.1h4.2c1.7,0,3.1-1.4,3.1-3.1v-1.8H291.3z"></path><path class="st2" d="M290.9,111.5c-0.1,0-0.2,0-0.3-0.1c-0.7-0.3-1.5-0.3-2.1,0c-0.3,0.2-0.7,0.1-0.8-0.2c-0.2-0.3-0.1-0.7,0.2-0.8
		c0,0,0,0,0,0c1.1-0.5,2.3-0.5,3.4,0c0.3,0.2,0.4,0.6,0.2,0.9C291.3,111.3,291.1,111.5,290.9,111.5z"></path><path class="st2" d="M306.4,139.4c0,0-6.3,25.4-8.3,41.1c-1.2,9.5-9.4,41.1-2.8,61.5l35.3,1.2c0,0-5.3-39.4-5.3-43.6s6.6-33,6.6-33
		s23.9,22.4,23.5,27s-20.1,29.9-20.1,29.9l11.1,14.5c0,0,37.5-23.2,35.1-42s-33.7-47.2-39.7-53.3
		C333.9,134.9,306.4,139.4,306.4,139.4z"></path><path class="st2" d="M330.5,243.9L330.5,243.9l-35.3-1.2c-0.3,0-0.5-0.2-0.6-0.4c-5.4-16.7-1.1-40.2,1.5-54.2
		c0.6-3.2,1.1-5.7,1.3-7.5c2-15.6,8.2-41,8.3-41.2c0.1-0.2,0.3-0.4,0.5-0.5c1.1-0.2,28-4.5,35.9,3.5c0.6,0.6,1.5,1.5,2.6,2.6
		c9.6,9.3,35,34.1,37.2,51.1c1,8-4.6,17.6-16.8,28.6c-5.8,5.1-12,9.8-18.5,14c-0.3,0.2-0.6,0.1-0.8-0.1l-11.1-14.6
		c-0.2-0.2-0.2-0.5,0-0.8c5.5-7,19.7-26,20-29.5c0.2-3-13.4-17.1-22.6-25.7c-1.2,5.2-6.3,28.2-6.3,31.9c0,4.1,5.2,43.1,5.3,43.5
		c0,0.2,0,0.4-0.2,0.5C330.9,243.8,330.7,243.9,330.5,243.9z M295.7,241.5l34.1,1.1c-0.8-5.6-5.2-39-5.2-42.9c0-4.2,6.3-32,6.6-33.2
		c0.1-0.3,0.4-0.5,0.7-0.4c0.1,0,0.2,0.1,0.3,0.1c2.5,2.3,24.1,22.8,23.8,27.5c-0.3,4.4-16.9,25.9-19.9,29.8l10.5,13.8
		c4.3-2.8,36.5-24.1,34.3-41.1c-2.1-16.6-27.4-41.1-36.9-50.3c-1.1-1.1-2-2-2.6-2.6c-7-7.1-31-3.7-34.4-3.2
		c-0.8,3.3-6.3,26.2-8.1,40.7c-0.2,1.8-0.7,4.4-1.3,7.6C295,201.1,290.6,225.1,295.7,241.5z"></path><path class="st1" d="M325,230.3c-0.1,0-0.2,0-0.4-0.1l-22.5-13.4c-0.3-0.2-0.5-0.6-0.3-1c0,0,0,0,0,0c0.2-0.3,0.6-0.5,1-0.3
		c0,0,0,0,0,0l22.4,13.4c0.3,0.2,0.4,0.6,0.2,1C325.4,230.2,325.2,230.3,325,230.3L325,230.3z"></path><path class="st2" d="M284,141.6c0,0-3.6,20.7-5.6,34.4c-5.3,36.4-10,63.6-10,63.6s-22.7-1-21.6-1.7s13.2-35.1,11.9-42.8
		s-5.6-21.5-4.6-24.6s8.4-23.8,8.4-23.8S269.7,141.6,284,141.6z"></path><path class="st2" d="M268.4,240.3L268.4,240.3c-21.9-0.9-22.1-1.5-22.2-2c-0.1-0.3,0-0.6,0.3-0.7c0.9-1.2,12.9-34.8,11.6-42.1
		c-0.5-2.5-1.2-5.7-2-9c-1.7-7-3.3-13.6-2.5-15.9c1-3.1,8.3-23.6,8.4-23.8c0-0.1,0.1-0.2,0.2-0.3c0.3-0.2,7.6-5.4,21.9-5.4
		c0.2,0,0.4,0.1,0.5,0.2c0.1,0.1,0.2,0.3,0.1,0.5c0,0.2-3.7,20.9-5.6,34.4c-5.2,36-10,63.4-10,63.6
		C268.9,240.1,268.6,240.3,268.4,240.3z M247.6,237.7c2.7,0.4,13.2,1,20.2,1.3c0.7-4,5.1-29.9,9.9-63.1c1.8-12.1,4.9-29.9,5.5-33.7
		c-12.3,0.2-19.2,4.4-20.3,5.1c-0.8,2.1-7.3,20.7-8.3,23.6c-0.6,1.9,1,9,2.5,15.2c0.8,3.4,1.6,6.5,2,9.1c0.8,4.5-2.8,17.1-5,24.3
		C252.4,225.1,249.1,234.8,247.6,237.7L247.6,237.7z"></path><path class="st1" d="M344.4,235.4c0,0-10,4.8-13.7,3.6s-9.3-6.1-9.3-6.1s-9.3-0.6-9.5-2.2s4-2.2,8.6-1.2c0,0-8.5-1.7-8.7-2.6
		c0-1.1,0.8-2,1.9-2.1c0,0,0.1,0,0.1,0c1.3,0,6.9,1,6.9,1s-6.7-1.2-6.2-2.8s5.9-0.5,5.9-0.5s-5.3-1.4-4.2-2.8c1.6-2,11.6,2.9,13.1,4
		c4.1,3,7.5,2.7,7.5,2.7L344.4,235.4z"></path><path class="st2" d="M332.2,239.8c-0.6,0-1.1-0.1-1.7-0.2c-3.5-1.1-8.4-5.2-9.3-6c-4.5-0.3-9.7-1-9.9-2.8c0-0.5,0.2-1,0.6-1.4
		c0.6-0.5,1.3-0.8,2.1-0.9c-2.6-0.8-2.6-1.3-2.7-1.6c-0.1-0.7,0.1-1.3,0.6-1.8c0.5-0.6,1.3-1,2.1-1c0.1,0,0.3,0,0.5,0
		c-0.1-0.1-0.2-0.2-0.3-0.4c-0.2-0.3-0.2-0.7-0.1-1c0.3-0.8,1.3-1.2,2.5-1.3c-0.4-0.2-0.7-0.6-0.8-1c-0.1-0.4-0.1-0.9,0.2-1.2
		c2.1-2.6,12.9,3.1,14,3.9c3.8,2.9,7,2.6,7,2.6c0.2,0,0.4,0.1,0.5,0.2l7.4,8.9c0.1,0.1,0.2,0.3,0.1,0.5c0,0.2-0.2,0.4-0.4,0.4
		C344.3,236.2,336.7,239.8,332.2,239.8z M316.2,229.6c-1.2-0.1-2.4,0.1-3.5,0.7c-0.2,0.1-0.2,0.2-0.2,0.3c0.4,0.6,4.5,1.4,8.9,1.6
		c0.1,0,0.3,0.1,0.4,0.1c0,0.1,5.5,4.8,9.1,5.9c2.6,0.9,9.3-1.7,12.5-3.2l-6.7-8c-2.8-0.1-5.4-1.1-7.6-2.9c-2-1.5-11.1-5.4-12.2-4.1
		c0.1,0.4,2,1.3,3.8,1.8c0.3,0.1,0.5,0.5,0.4,0.8c-0.1,0.3-0.4,0.5-0.7,0.4c-2.6-0.5-5.1-0.4-5.2,0c0.2,0.5,2.9,1.4,5.8,1.9
		c0.3,0.1,0.6,0.4,0.5,0.7c-0.1,0.3-0.4,0.6-0.7,0.5c-1.5-0.3-5.7-1-6.8-1c-0.4,0-0.8,0.2-1.1,0.5c-0.2,0.2-0.3,0.4-0.3,0.7
		c0.8,0.5,4.6,1.5,8,2.2h0.1c0.3,0.1,0.5,0.5,0.4,0.8c-0.1,0.3-0.4,0.5-0.7,0.5h-0.2C319,229.8,317.6,229.6,316.2,229.6z"></path><path class="st2" d="M290.4,125.7c-2.8-0.1-5.6-0.9-8-2.3c-0.3-0.2-0.4-0.6-0.2-0.9c0.2-0.3,0.6-0.4,0.9-0.2c0,0,0,0,0,0
		c0.1,0,7.8,4.8,12.8,0.1c0.2-0.2,0.6-0.2,0.9,0c0.2,0.2,0.2,0.6,0,0.9c0,0,0,0,0,0C295,124.9,292.7,125.8,290.4,125.7z"></path><path class="st1" d="M195.8,122.9l-1.6-8.7c0,0-12.2-5.1-13.7-8.2c-3.2-6.9,7.7,2,10,2s1.4-3.3,0.8-3.5s-9.6-2.3-12.4-2.3
		s-0.5-3.6,2.1-4.1s10.9,1.5,10.9,1.5s-12.2-9.4-10.8-11s9.5,2.8,14.3,8.5c0,0-10.2-10.2-8.2-11.8s7.5,4,11.4,10
		c0,0-6-11.2-2.2-12.1s7.8,8.3,9.2,14.2c2,8,1.4,5.7,6.3,21.8"></path><path class="st2" d="M195.8,123.5c-0.3,0-0.6-0.2-0.6-0.5l-1.5-8.3c-2.2-0.9-12.3-5.3-13.7-8.3c-0.5-1.1-1-2.5-0.2-3.2
		c0.1-0.1,0.3-0.2,0.4-0.3c-0.4,0-0.9,0-1.1-0.1l0,0c-1.6,0-1.9-1.1-1.9-1.4c-0.1-1.6,1.9-3.6,3.9-4c1.7-0.3,5.7,0.3,8.3,0.9
		c-3.3-2.7-8.7-7.3-8.9-9.3c0-0.3,0.1-0.6,0.3-0.9c0.4-0.4,0.9-0.6,1.5-0.6c1.5,0,3.9,1,6.5,2.7c-1.3-1.8-2.3-3.5-2.3-4.6
		c0-0.4,0.2-0.8,0.5-1c0.5-0.4,1.1-0.5,1.7-0.4c1.9,0.3,4.6,2.7,7.2,5.8c-0.9-2.4-1.5-5-0.8-6.4c0.3-0.6,0.8-1.1,1.5-1.2
		c0.9-0.2,1.8,0,2.5,0.4c3.4,2,6.4,9.6,7.5,14.2c1.5,6,1.5,6.1,3.5,12.7c0.6,2.2,1.5,5.1,2.7,9.1c0.1,0.3-0.1,0.7-0.4,0.8
		c-0.3,0.1-0.7-0.1-0.8-0.4l0,0c-1.2-4-2.1-6.9-2.7-9.1c-2-6.6-2-6.7-3.5-12.7c-1.3-5.3-4.2-11.8-6.9-13.4c-0.5-0.3-1-0.4-1.6-0.3
		c-0.3,0.1-0.5,0.3-0.6,0.5c-0.8,1.9,1.5,7.6,3.2,10.7c0.2,0.3,0.1,0.7-0.2,0.8c-0.3,0.2-0.7,0.1-0.9-0.2c-3.6-5.5-7.8-9.7-9.8-10
		c-0.2-0.1-0.5,0-0.7,0.1c-0.1,1.4,3,5.3,5.8,8.4c0.9,0.8,1.7,1.6,2.4,2.5c0.2,0.3,0.2,0.7-0.1,0.9c-0.2,0.2-0.6,0.2-0.9,0
		c-0.4-0.4-1.3-1.3-2.4-2.5c-3.9-3.6-8.6-6.1-10.4-6.1c-0.3,0-0.4,0.1-0.5,0.1c0,1,5.5,6.1,10.7,10c0.2,0.2,0.3,0.5,0.2,0.8
		c-0.1,0.3-0.4,0.4-0.7,0.3c-2.2-0.6-8.5-1.9-10.6-1.5c-1.6,0.3-2.9,2-2.9,2.6c0,0.2,0.4,0.2,0.6,0.2l0,0c2.9,0,12.1,2.2,12.6,2.4
		c0.8,0.3,1.3,2,1.1,3c-0.1,1-1.1,1.8-2.1,1.7l0,0c-0.9,0-2.4-0.8-4.8-2.2c-1.6-0.9-4.5-2.6-5.2-2.4c0.1,0.6,0.3,1.2,0.6,1.7
		c1.1,2.3,10,6.4,13.3,7.8c0.2,0.1,0.3,0.3,0.4,0.5l1.6,8.7c0.1,0.3-0.2,0.7-0.5,0.7L195.8,123.5z M182.2,103.2
		c1.5,0.6,2.9,1.4,4.2,2.2c1.6,0.9,3.6,2,4.2,2l0,0c0.6,0,0.7-0.2,0.8-0.4c0.2-0.6,0.1-1.3-0.3-1.9
		C190.8,104.9,185.8,103.8,182.2,103.2z"></path><path class="st3" d="M166.2,108.8l0.4,12.3l2.6,3.3l4.5-0.1l0.4,7l2.4,1.1c0,0-1.4,1.3-1.3,2.1s2,1.4,2,1.4s-1.4,1-1.5,1.9
		s-0.1,3.8,0.2,4.1l1.5,1.3c-0.5,0.2-0.8,0.8-0.7,1.3c0.2,0.7,0.7,1.3,1.3,1.8c0,0-1.1,1.1-1,2s3.7,4.2,3.7,4.2l3.1-3.5l-0.8-26.3
		l3.7-4.1l-0.5-13.9c-0.1-1.5-1.3-2.7-2.9-2.7c-0.2,0-0.5,0-0.7,0.1l-14.2,4.4L166.2,108.8z M176.8,105.6c0,0,5.3-2.1,6.1-1.9
		s0.2,5,0.2,5l-5.7,0.9L176.8,105.6z"></path><path class="st2" d="M180.8,153.2c-0.2,0-0.3-0.1-0.4-0.2c-1.4-1.3-3.7-3.6-3.9-4.6c-0.1-0.7,0.2-1.5,0.7-2
		c-0.5-0.5-0.9-1.1-1.1-1.7c-0.1-0.5,0-1,0.4-1.4l-0.9-0.8c-0.8-0.7-0.5-4.6-0.4-4.6c0.1-0.6,0.4-1.2,0.9-1.6
		c-0.6-0.3-1.3-0.8-1.5-1.5c0-0.8,0.3-1.5,0.8-2l-1.6-0.7c-0.2-0.1-0.4-0.3-0.4-0.6l-0.3-6.4l-3.8,0.1c-0.2,0-0.4-0.1-0.5-0.2
		l-2.6-3.3c-0.1-0.1-0.1-0.2-0.1-0.4l-0.4-12.3c0-0.2,0.1-0.3,0.2-0.5l2.2-2.3c0.1-0.1,0.2-0.1,0.3-0.2l14.2-4.4
		c1.8-0.6,3.7,0.5,4.3,2.3c0.1,0.3,0.1,0.6,0.2,0.9l0.5,13.9c0,0.2-0.1,0.3-0.2,0.4l-3.6,3.9l0.9,26.1c0,0.2-0.1,0.3-0.2,0.4
		l-3.1,3.6C181.2,153.1,181,153.2,180.8,153.2L180.8,153.2z M174.7,131l2.1,0.9c0.3,0.1,0.5,0.5,0.3,0.8c0,0.1-0.1,0.2-0.2,0.2
		c-0.5,0.4-0.9,0.9-1.1,1.5c0.4,0.4,1,0.8,1.6,0.9c0.2,0.1,0.4,0.3,0.4,0.5c0,0.2-0.1,0.5-0.3,0.6c-0.5,0.3-1.2,1-1.2,1.4
		c-0.1,1.2-0.1,2.5,0.1,3.7l1.4,1.2c0.2,0.1,0.2,0.4,0.2,0.6c0,0.2-0.2,0.4-0.4,0.5c-0.2,0.1-0.4,0.3-0.3,0.6c0.2,0.5,0.6,1,1.1,1.4
		c0.2,0.1,0.2,0.3,0.3,0.5c0,0.2-0.1,0.4-0.2,0.5c-0.4,0.3-0.8,1-0.8,1.4c0.9,1.3,1.9,2.4,3,3.4l2.5-2.8l-0.9-26.1
		c0-0.2,0-0.3,0.2-0.4l3.6-3.9l-0.4-13.7c0-1.2-1-2.1-2.2-2.1c-0.2,0-0.4,0-0.6,0.1l-14.1,4.4l-1.9,2l0.4,11.8l2.3,2.9l4.1-0.1
		c0.3,0,0.6,0.3,0.7,0.6L174.7,131z M177.3,110.3c-0.1,0-0.3,0-0.4-0.1c-0.1-0.1-0.2-0.3-0.2-0.4l-0.5-4.1c0-0.3,0.1-0.6,0.4-0.7
		c2.5-1,5.7-2.1,6.5-1.9c0.4,0.1,1.3,0.3,0.6,5.7c0,0.3-0.3,0.5-0.5,0.6l-5.7,0.9L177.3,110.3z M177.5,106l0.4,2.9l4.6-0.8
		c0.2-1.3,0.2-2.6,0.1-3.8C180.8,104.8,179.1,105.3,177.5,106L177.5,106z"></path><path class="st2" d="M181.7,148.9c-0.3,0-0.6-0.3-0.6-0.6l-0.9-25.7c0-0.4,0.3-0.6,0.6-0.7c0,0,0,0,0,0c0.3,0,0.6,0.3,0.7,0.6
		c0,0,0,0,0,0l0.9,25.7C182.3,148.6,182.1,148.9,181.7,148.9L181.7,148.9z"></path><path class="st2" d="M172.7,122.1c-0.1,0-0.2,0-0.3-0.1l-3.2-1.7c-0.2-0.1-0.3-0.3-0.3-0.5l-1.2-9.1c0-0.1,0-0.3,0.1-0.4l1.3-2.3
		c0.1-0.1,0.2-0.2,0.3-0.3l5.4-2c0.2-0.1,0.4-0.1,0.6,0c0.2,0.1,0.3,0.3,0.3,0.5l0.7,4.8l5.6-0.5c0.2,0,0.4,0,0.5,0.2
		c0.1,0.1,0.2,0.3,0.2,0.4l0.3,7.8c0,0.3-0.2,0.6-0.5,0.6l-9.5,2.5L172.7,122.1z M170,119.3l2.7,1.4l8.8-2.3l-0.2-6.6l-5.6,0.5
		c-0.3,0-0.6-0.2-0.7-0.6l-0.6-4.7l-4.4,1.6l-1.1,1.9L170,119.3z"></path><path class="st1" d="M182.7,103.7c-0.7-0.5-1.4-0.9-2.1-1.2c-0.6-0.3-1.9-0.7-2.5-0.3c-0.4,0.3-0.6,0.7-0.6,1.1
		c0,0.5,0.1,0.9,0.3,1.3c0.7,1.5,3.4,3,5,3.4"></path><path class="st2" d="M182.6,108.7c-0.1,0-0.1,0-0.2,0c-1.8-0.4-4.7-2-5.4-3.8c-0.2-0.5-0.4-1-0.3-1.6c0-0.7,0.4-1.3,0.9-1.6
		c1.1-0.7,3.1,0.2,3.1,0.3l0.6,0.3c0.6,0.3,1.1,0.6,1.6,1c0.3,0.2,0.3,0.6,0.1,0.9c0,0,0,0,0,0c-0.2,0.3-0.6,0.3-0.9,0.1
		c-0.4-0.3-0.9-0.6-1.4-0.8l-0.6-0.3c-0.6-0.3-1.3-0.5-1.9-0.3c-0.2,0.2-0.3,0.4-0.3,0.6c0,0.3,0.1,0.7,0.2,1
		c0.6,1.3,3.1,2.7,4.6,3.1c0.3,0.1,0.5,0.4,0.5,0.8c0,0,0,0,0,0C183.2,108.6,182.9,108.7,182.6,108.7z"></path><path class="st1" d="M299.7,185.3c-0.2,0-0.4-0.1-0.5-0.2c-0.3-0.3-0.2-0.7,0-1c0,0,0,0,0,0l14.1-12.5l-5.5-7.9
		c-0.2-0.3-0.1-0.7,0.1-0.9l10-8.5c-6.9-10.7-6.9-11.4-6.9-11.6c0-0.4,0.3-0.7,0.7-0.7c0.3,0,0.6,0.3,0.7,0.6
		c0.3,0.8,3.8,6.5,7,11.4c0.2,0.3,0.1,0.7-0.1,0.9l-10,8.5l5.5,7.9c0.2,0.3,0.2,0.7-0.1,0.9l-14.6,12.9
		C300.1,185.2,299.9,185.3,299.7,185.3z"></path><path class="st1" d="M274.6,187.5c-0.3,0-0.5-0.2-0.6-0.4l-6.2-13c-0.1-0.2-0.1-0.5,0-0.7l5.6-9.6l-6.8-4.8
		c-0.2-0.1-0.3-0.3-0.3-0.5c0-0.2,0-0.4,0.2-0.6l11.4-12.8c0.3-0.3,0.7-0.3,1-0.1c0.3,0.3,0.3,0.7,0.1,1c0,0,0,0,0,0L268,158.3
		l6.7,4.7c0.3,0.2,0.4,0.6,0.2,0.9l-5.8,9.9l6.1,12.7c0.2,0.3,0,0.8-0.3,0.9c0,0,0,0,0,0C274.8,187.5,274.7,187.5,274.6,187.5z"></path><path class="st1" d="M253.2,229.6c-0.4,0-0.7-0.3-0.7-0.7c0-0.3,0.1-0.5,0.4-0.6l12.2-7c0.3-0.2,0.8-0.1,1,0.2
		c0.2,0.3,0.1,0.8-0.2,1c0,0,0,0-0.1,0l-12.2,7C253.4,229.6,253.3,229.6,253.2,229.6z"></path></g><g id="Signpost"><rect class="st1" x="176.6" y="179.2" width="13.9" height="229.4"></rect><path class="st2" d="M190.4,409.2h-13.9c-0.4,0-0.6-0.3-0.6-0.6l0,0V179.2c0-0.4,0.3-0.6,0.6-0.6h13.9c0.4,0,0.6,0.3,0.6,0.6v229.4
		C191.1,408.9,190.8,409.2,190.4,409.2L190.4,409.2z M177.2,408h12.6V179.9h-12.6V408z"></path><rect class="st2" x="176.6" y="239.7" width="13.9" height="38"></rect><path class="st2" d="M190.4,278.3h-13.9c-0.3,0-0.6-0.3-0.6-0.6v-38c0-0.3,0.3-0.6,0.6-0.6h13.9c0.3,0,0.6,0.3,0.6,0.6c0,0,0,0,0,0
		v38C191.1,278,190.8,278.3,190.4,278.3C190.4,278.3,190.4,278.3,190.4,278.3z M177.2,277h12.6v-36.7h-12.6V277z"></path><rect class="st1" x="118.5" y="187.9" width="123.1" height="77"></rect><path class="st2" d="M241.5,265.6h-123c-0.4,0-0.6-0.3-0.6-0.6l0,0v-77c0-0.4,0.3-0.6,0.6-0.6h123c0.4,0,0.6,0.3,0.6,0.6v77
		C242.2,265.3,241.9,265.6,241.5,265.6L241.5,265.6z M119.1,264.3h121.8v-75.7H119.1L119.1,264.3z"></path><path class="st0" d="M143.8,243.4v2.4h4.6v2.3h-4.6v4.4H141V241h7.8v2.4L143.8,243.4z"></path><path class="st0" d="M162.9,246.7c0,0.8-0.2,1.7-0.5,2.5c-0.3,0.7-0.8,1.4-1.3,1.9c-0.6,0.5-1.3,1-2,1.2c-0.8,0.3-1.7,0.4-2.6,0.4
		c-0.9,0-1.7-0.1-2.6-0.4c-0.7-0.3-1.4-0.7-2-1.2c-0.6-0.5-1-1.2-1.3-1.9c-0.6-1.6-0.6-3.4,0-4.9c0.3-0.7,0.8-1.4,1.3-1.9
		c0.6-0.5,1.3-0.9,2-1.2c0.8-0.3,1.7-0.4,2.6-0.4c0.9,0,1.7,0.1,2.6,0.4c0.7,0.3,1.4,0.7,2,1.2c0.6,0.5,1,1.2,1.3,1.9
		C162.7,245,162.9,245.8,162.9,246.7z M159.9,246.7c0-0.5-0.1-0.9-0.2-1.4c-0.2-0.4-0.4-0.8-0.7-1.1c-0.3-0.3-0.7-0.6-1.1-0.7
		c-0.4-0.2-0.9-0.3-1.4-0.3c-0.5,0-0.9,0.1-1.4,0.3c-0.4,0.2-0.8,0.4-1.1,0.7c-0.3,0.3-0.5,0.7-0.7,1.1c-0.2,0.4-0.2,0.9-0.2,1.4
		c0,0.5,0.1,1,0.2,1.4c0.2,0.4,0.4,0.8,0.7,1.1c0.3,0.3,0.7,0.6,1.1,0.7c0.9,0.3,1.9,0.3,2.7,0c0.4-0.2,0.8-0.4,1.1-0.7
		c0.3-0.3,0.5-0.7,0.7-1.1C159.8,247.7,159.9,247.2,159.9,246.7L159.9,246.7z"></path><path class="st0" d="M171.1,252.4l-2.6-4.5h-1v4.5h-2.8V241h4.5c0.6,0,1.1,0.1,1.7,0.2c0.5,0.1,1,0.3,1.5,0.6
		c0.4,0.3,0.8,0.6,1,1.1c0.3,0.5,0.4,1.1,0.4,1.6c0,0.7-0.2,1.4-0.6,2c-0.5,0.6-1.1,0.9-1.8,1.1l3.1,4.9L171.1,252.4z M171,244.5
		c0-0.2-0.1-0.5-0.2-0.6c-0.1-0.2-0.3-0.3-0.4-0.4c-0.2-0.1-0.4-0.2-0.6-0.2c-0.2,0-0.4,0-0.7,0h-1.5v2.7h1.4c0.2,0,0.5,0,0.7-0.1
		c0.2,0,0.5-0.1,0.7-0.2c0.2-0.1,0.4-0.2,0.5-0.4C170.9,245.1,171,244.8,171,244.5L171,244.5z"></path><path class="st0" d="M186.3,244c-0.3-0.3-0.6-0.6-1-0.7c-0.4-0.2-0.8-0.3-1.1-0.3c-0.2,0-0.4,0-0.6,0.1c-0.2,0-0.4,0.1-0.5,0.2
		c-0.2,0.1-0.3,0.2-0.4,0.4c-0.1,0.2-0.2,0.4-0.2,0.6c0,0.2,0,0.3,0.1,0.5c0.1,0.1,0.2,0.3,0.4,0.3c0.2,0.1,0.4,0.2,0.6,0.3l0.8,0.2
		c0.4,0.1,0.8,0.3,1.2,0.4c0.4,0.2,0.8,0.4,1.2,0.6c0.4,0.3,0.7,0.6,0.9,1c0.2,0.4,0.4,0.9,0.4,1.4c0,1.1-0.5,2.2-1.4,2.9
		c-0.4,0.3-0.9,0.6-1.5,0.7c-0.5,0.1-1.1,0.2-1.7,0.2c-0.8,0-1.7-0.1-2.4-0.4c-0.8-0.3-1.4-0.7-2-1.2l1.9-1.8
		c0.3,0.4,0.7,0.7,1.1,0.9c0.4,0.2,0.9,0.3,1.4,0.4c0.2,0,0.4,0,0.6-0.1c0.2,0,0.4-0.1,0.5-0.2c0.1-0.1,0.3-0.2,0.4-0.4
		c0.1-0.2,0.1-0.4,0.1-0.6c0-0.2,0-0.4-0.2-0.6c-0.1-0.2-0.3-0.3-0.5-0.4c-0.2-0.1-0.5-0.3-0.8-0.3l-1-0.3c-0.4-0.1-0.7-0.3-1.1-0.4
		c-0.4-0.2-0.7-0.4-1-0.6c-0.3-0.3-0.5-0.6-0.7-0.9c-0.2-0.4-0.3-0.9-0.3-1.3c0-0.6,0.1-1.1,0.4-1.6c0.3-0.4,0.6-0.8,1.1-1.1
		c0.5-0.3,0.9-0.5,1.5-0.6c0.5-0.1,1.1-0.2,1.6-0.2c0.7,0,1.4,0.1,2.1,0.4c0.7,0.2,1.3,0.5,1.8,1L186.3,244z"></path><path class="st0" d="M197.9,252.4l-0.9-2.2h-4.6l-0.9,2.2h-3.1l5-11.4h2.8l4.9,11.4H197.9z M194.7,244.1l-1.5,3.9h3L194.7,244.1z"></path><path class="st0" d="M202,252.4V241h2.9v9h4.6v2.4L202,252.4z"></path><path class="st0" d="M210.8,252.4V241h7.9v2.3h-5.2v2.2h4.9v2.2h-4.9v2.4h5.5v2.4L210.8,252.4z"></path><path class="st0" d="M195,234h-28.7c-0.4,0-0.7-0.3-0.7-0.7v-25.8c0-0.4,0.3-0.7,0.7-0.7H195c0.4,0,0.7,0.3,0.7,0.7v25.8
		C195.7,233.7,195.4,234,195,234z M167,232.6h27.3v-24.4H167V232.6z"></path><polygon class="st0" points="180.7,196.7 198.9,207.5 162.4,207.5 	"></polygon><path class="st0" d="M198.9,208.2h-36.5c-0.4,0-0.7-0.3-0.7-0.7c0-0.2,0.1-0.5,0.3-0.6l18.2-10.8c0.2-0.1,0.5-0.1,0.7,0l18.2,10.8
		c0.3,0.2,0.4,0.5,0.3,0.8C199.5,208,199.2,208.2,198.9,208.2z M165,206.8h31.3l-15.7-9.2L165,206.8z"></path><path class="st0" d="M184.7,233.9h-7c-0.4,0-0.7-0.3-0.7-0.7v-11c0-0.4,0.3-0.7,0.7-0.7h7c0.4,0,0.7,0.3,0.7,0.7v11
		C185.4,233.6,185.1,233.9,184.7,233.9z M178.4,232.5h5.6v-9.6h-5.6V232.5z"></path><polygon class="st0" points="166.3,210 147.8,210 139.9,220.4 166.3,220.4 	"></polygon><path class="st0" d="M166.3,221.1h-26.4c-0.3,0-0.5-0.2-0.6-0.4c-0.1-0.2-0.1-0.5,0.1-0.7l7.9-10.4c0.1-0.2,0.3-0.3,0.6-0.3h18.5
		c0.4,0,0.7,0.3,0.7,0.7v10.4C167,220.8,166.7,221.1,166.3,221.1z M141.3,219.7h24.3v-9h-17.5L141.3,219.7z"></path><path class="st0" d="M166.3,234h-24.4c-0.4,0-0.7-0.3-0.7-0.7v-12.9c0-0.4,0.3-0.7,0.7-0.7h24.4c0.4,0,0.7,0.3,0.7,0.7v12.9
		C167,233.7,166.7,234,166.3,234z M142.6,232.6h23v-11.5h-23V232.6z"></path><polygon class="st0" points="192.6,224.1 168.8,224.1 170.9,220.4 190.4,220.4 	"></polygon><path class="st0" d="M192.6,224.8h-23.8c-0.2,0-0.5-0.1-0.6-0.4c-0.1-0.2-0.1-0.5,0-0.7l2.2-3.7c0.1-0.2,0.4-0.4,0.6-0.4h19.4
		c0.2,0,0.5,0.1,0.6,0.4l2.2,3.7c0.2,0.3,0.1,0.8-0.3,1C192.8,224.7,192.7,224.8,192.6,224.8L192.6,224.8z M170,223.4h21.3l-1.3-2.3
		h-18.7L170,223.4z"></path><path class="st0" d="M188,218.9h-14.3c-0.4,0-0.7-0.3-0.7-0.7v-5.9c0-0.4,0.3-0.7,0.7-0.7H188c0.4,0,0.7,0.3,0.7,0.7v5.9
		C188.7,218.6,188.4,218.9,188,218.9z M174.4,217.5h12.9V213h-12.9L174.4,217.5z"></path><path class="st0" d="M151.7,229.8h-5.1c-0.4,0-0.7-0.3-0.7-0.7v-5.1c0-0.4,0.3-0.7,0.7-0.7h5.1c0.4,0,0.7,0.3,0.7,0.7v5.1
		C152.4,229.5,152.1,229.8,151.7,229.8z M147.4,228.4h3.6v-3.7h-3.7L147.4,228.4z"></path><path class="st0" d="M160.9,229.8h-5.1c-0.4,0-0.7-0.3-0.7-0.7v-5.1c0-0.4,0.3-0.7,0.7-0.7h5.1c0.4,0,0.7,0.3,0.7,0.7v5.1
		C161.6,229.5,161.3,229.8,160.9,229.8z M156.6,228.4h3.7v-3.7h-3.7V228.4z"></path><path class="st0" d="M175.2,230.8h-3.5c-0.4,0-0.7-0.3-0.7-0.7v-3.5c0-0.4,0.3-0.7,0.7-0.7h3.5c0.4,0,0.7,0.3,0.7,0.7v3.5
		C175.9,230.5,175.6,230.8,175.2,230.8z M172.4,229.4h2.1v-2.1h-2.1V229.4z"></path><path class="st0" d="M190.4,230.8h-3.5c-0.4,0-0.7-0.3-0.7-0.7v-3.5c0-0.4,0.3-0.7,0.7-0.7h3.5c0.4,0,0.7,0.3,0.7,0.7v3.5
		C191.1,230.5,190.8,230.8,190.4,230.8z M187.6,229.4h2.1v-2.1h-2.1V229.4z"></path><path class="st0" d="M212.6,234H195c-0.4,0-0.7-0.3-0.7-0.7v-14c0-0.4,0.3-0.7,0.7-0.7h17.6c0.4,0,0.7,0.3,0.7,0.7v14
		C213.3,233.7,213,234,212.6,234z M195.7,232.6h16.2v-12.6h-16.2V232.6z"></path><rect class="st0" x="198.9" y="223" width="10.2" height="10.2"></rect><path class="st0" d="M209.1,233.9h-10.2c-0.4,0-0.7-0.3-0.7-0.7V223c0-0.4,0.3-0.7,0.7-0.7h10.2c0.4,0,0.7,0.3,0.7,0.7v10.2
		C209.8,233.6,209.5,233.9,209.1,233.9C209.1,233.9,209.1,233.9,209.1,233.9z M199.6,232.5h8.8v-8.8h-8.8V232.5z"></path><polygon class="st0" points="195,213.4 210.9,213.4 217,219.4 195,219.4 	"></polygon><path class="st0" d="M217,220.1h-22c-0.4,0-0.7-0.3-0.7-0.7v-5.9c0-0.4,0.3-0.7,0.7-0.7h15.8c0.2,0,0.4,0.1,0.5,0.2l6.2,5.9
		c0.2,0.2,0.3,0.5,0.2,0.8C217.6,219.9,217.3,220.1,217,220.1z M195.7,218.7h19.6l-4.7-4.5h-14.8L195.7,218.7z"></path><path class="st2" d="M203.9,409.2H171c-0.4,0-0.6-0.3-0.6-0.6c0-0.4,0.3-0.6,0.6-0.6c0,0,0,0,0,0h32.9c0.4,0,0.6,0.3,0.6,0.6l0,0
		C204.5,408.9,204.3,409.2,203.9,409.2C203.9,409.2,203.9,409.2,203.9,409.2z"></path></g></svg>